<?xml version="1.0" encoding="UTF-8"?>
<svg version="1.1" xmlns="http://www.w3.org/2000/svg" width="401" height="408">
<path d="M0 0 C132.33 0 264.66 0 401 0 C401 134.64 401 269.28 401 408 C268.67 408 136.34 408 0 408 C0 273.36 0 138.72 0 0 Z " fill="#FEFEFE" transform="translate(0,0)"/>
<path d="M0 0 C0.90008939 -0.00453111 1.80017877 -0.00906223 2.72754359 -0.01373065 C5.75605639 -0.02643255 8.78439069 -0.02475054 11.81292725 -0.02310181 C13.97932671 -0.02908352 16.14572403 -0.03588824 18.31211853 -0.04345703 C24.20686234 -0.06116252 30.10154813 -0.06581438 35.99631596 -0.0670886 C40.91427754 -0.0689853 45.83222554 -0.07634037 50.75018191 -0.08343279 C62.35329801 -0.09973234 73.95638305 -0.10460039 85.55950928 -0.10317993 C97.53318083 -0.10197871 109.50661429 -0.1230731 121.48024964 -0.15466726 C131.75465311 -0.18081283 142.02899764 -0.19154792 152.30343413 -0.19026911 C158.44222453 -0.18975889 164.58085482 -0.19547523 170.71961212 -0.21662521 C176.49475319 -0.235978 182.26958098 -0.23615211 188.04473305 -0.22159195 C190.16392537 -0.21949895 192.28313714 -0.22423386 194.40229607 -0.23631287 C197.2968052 -0.25174189 200.1902311 -0.24247231 203.0847168 -0.22705078 C204.34091178 -0.24248147 204.34091178 -0.24248147 205.62248445 -0.25822389 C211.30881687 -0.19133633 214.67590363 0.87966941 219.29632568 4.26742554 C223.00527066 8.51375413 222.72940501 12.87586279 222.70419312 18.24284363 C222.71544647 19.60060796 222.71544647 19.60060796 222.72692716 20.98580188 C222.74826326 24.01964236 222.74814363 27.05309566 222.74798584 30.08700562 C222.75859907 32.2619334 222.77042913 34.43685554 222.78338623 36.61177063 C222.81418172 42.52093051 222.82530962 48.4299693 222.83102846 54.33920121 C222.83538122 58.03105119 222.84375495 61.72286973 222.85352707 65.41470909 C222.88727846 78.29442325 222.90440917 91.17404571 222.90716553 104.05380249 C222.91020064 116.05945665 222.95064961 128.06452658 223.00831378 140.07003862 C223.05607908 150.37763016 223.07689758 160.68505165 223.07695615 170.99275321 C223.07749446 177.14901344 223.0891065 183.30476957 223.12813187 189.46091652 C223.16397185 195.25187648 223.16629082 201.04189602 223.14295959 206.83291054 C223.14009754 208.95653638 223.14916931 211.08021741 223.17113876 213.20373154 C223.34628476 231.25434008 223.34628476 231.25434008 218.93118286 236.53041077 C214.28308453 240.65994765 209.55535725 240.41396483 203.61715698 240.40786743 C202.27103154 240.41232412 202.27103154 240.41232412 200.89771163 240.41687083 C197.87839265 240.42557063 194.85911325 240.42706716 191.83978271 240.42855835 C189.67999181 240.43318557 187.52020173 240.4382101 185.3604126 240.44360352 C179.48440918 240.45673764 173.60841718 240.4631743 167.73240137 240.46761417 C164.06371436 240.47054289 160.39503049 240.47464729 156.72634506 240.47911835 C145.25473073 240.49279512 133.78312355 240.50246125 122.31150162 240.50632024 C109.05613789 240.51080344 95.80087715 240.52836281 82.54554474 240.55732083 C72.30769676 240.57891279 62.06987781 240.58902317 51.83200729 240.59036136 C45.7134257 240.59141105 39.59494089 240.59735381 33.47638321 240.61518097 C27.72263767 240.63161895 21.96906212 240.63383794 16.21530151 240.62504196 C14.10171937 240.62426933 11.98812824 240.62864393 9.87456894 240.63850021 C6.99266221 240.6511531 4.11136366 240.64537917 1.22946167 240.63491821 C-0.02963542 240.64700282 -0.02963542 240.64700282 -1.31416881 240.65933156 C-5.96391582 240.61976668 -8.92242853 240.24702764 -12.70367432 237.26742554 C-13.45618438 236.73173667 -14.20869444 236.1960478 -14.98400784 235.64412594 C-17.61603334 232.006481 -17.26014673 228.62512083 -17.21833801 224.24021912 C-17.22528354 223.31744641 -17.23222907 222.39467371 -17.23938507 221.4439382 C-17.25771587 218.34457327 -17.24737373 215.24596853 -17.23712158 212.14657593 C-17.24417697 209.92751999 -17.25292038 207.70846887 -17.26322937 205.48942566 C-17.28577575 199.45638284 -17.28277128 193.4236017 -17.2739079 187.39053273 C-17.26880621 182.3579954 -17.27608393 177.3255076 -17.28337997 172.29297537 C-17.3013692 159.74374352 -17.29495129 147.19463798 -17.27721017 134.64541971 C-17.26251452 123.74638449 -17.27713879 112.84762498 -17.30598033 101.94862527 C-17.33537322 90.75794306 -17.34583857 79.56736049 -17.33679813 68.37663454 C-17.33186187 62.0937071 -17.33412252 55.810994 -17.35458565 49.52809334 C-17.37290373 43.6207207 -17.36703101 37.71386147 -17.34238625 31.80651665 C-17.33736614 29.63650139 -17.34089903 27.46644728 -17.3535347 25.29646301 C-17.36940302 22.33758562 -17.35457259 19.38041172 -17.3318634 16.4216156 C-17.349617 15.12852316 -17.349617 15.12852316 -17.36772925 13.80930763 C-17.30031467 9.49626459 -17.1288773 7.80027346 -14.3519125 4.32028866 C-9.33899422 0.43437117 -6.18354644 -0.02262762 0 0 Z " fill="#0000FC" transform="translate(100.70367431640625,84.73257446289063)"/>
<path d="M0 0 C132.33 0 264.66 0 401 0 C401 1.65 401 3.3 401 5 C269.66 5 138.32 5 3 5 C3 137 3 269 3 405 C134.34 405 265.68 405 401 405 C401 405.99 401 406.98 401 408 C268.67 408 136.34 408 0 408 C0 273.36 0 138.72 0 0 Z " fill="#060713" transform="translate(0,0)"/>
<path d="M0 0 C0.99 0 1.98 0 3 0 C3 87.45 3 174.9 3 265 C134.34 265 265.68 265 401 265 C401 265.99 401 266.98 401 268 C268.67 268 136.34 268 0 268 C0 179.56 0 91.12 0 0 Z " fill="#040506" transform="translate(0,140)"/>
<path d="M0 0 C0.90265266 -0.00623996 1.80530532 -0.01247993 2.73531109 -0.01890898 C5.75472109 -0.03484165 8.77332412 -0.02223344 11.79273987 -0.00964355 C13.95958425 -0.01506458 16.12642495 -0.02218712 18.29325867 -0.03088379 C24.17550906 -0.04912336 30.0574789 -0.04204654 35.93973422 -0.02936745 C42.09574564 -0.01924186 48.251733 -0.02863203 54.40774536 -0.03491211 C64.74689548 -0.04219033 75.08593132 -0.03259673 85.42506409 -0.0135498 C97.37664657 0.00821342 109.32795604 0.00117211 121.2795319 -0.02085543 C131.54127222 -0.03901124 141.80293039 -0.04156665 152.06468159 -0.03110075 C158.19334802 -0.02486612 164.32188618 -0.02402937 170.45054436 -0.0372467 C176.21344266 -0.04880688 181.9759893 -0.04077595 187.73884964 -0.01766968 C189.85319625 -0.0123833 191.96757248 -0.01389511 194.08190727 -0.02272034 C196.96971711 -0.03366209 199.85640231 -0.01992825 202.74414062 0 C203.99726607 -0.01338433 203.99726607 -0.01338433 205.27570719 -0.02703905 C210.95322209 0.04888014 214.32117919 1.12722447 218.93556213 4.50793457 C222.66809511 8.76814104 222.35174858 13.15108395 222.29632568 18.53718567 C222.29888896 19.44800642 222.30145223 20.35882717 222.30409318 21.29724854 C222.30903535 24.34983492 222.2925308 27.40192694 222.27613831 30.45446777 C222.27529213 32.64236947 222.27576699 34.83027202 222.27746582 37.01817322 C222.27832756 42.95991086 222.26067272 48.90146729 222.23974395 54.84316278 C222.22100701 61.05181987 222.21922906 67.26048098 222.21566772 73.46916199 C222.20686902 84.55849929 222.18519724 95.64776153 222.15673957 106.73706456 C222.13104579 116.80269223 222.11231136 126.86830654 222.10035706 136.93395996 C222.0991748 137.92665906 222.0991748 137.92665906 222.09796866 138.93941269 C222.0940535 142.25952322 222.09026915 145.57963389 222.08653295 148.89974463 C222.05516405 176.43585429 222.00238643 203.97188975 221.93556213 231.50793457 C221.60556213 231.50793457 221.27556213 231.50793457 220.93556213 231.50793457 C220.93059691 229.81273367 220.93059691 229.81273367 220.92553139 228.08328629 C220.84460757 200.60943565 220.75231371 173.13564124 220.64803505 145.66186905 C220.59787147 132.37586694 220.55142901 119.08987646 220.51368713 105.80383301 C220.48078947 94.22636774 220.44097062 82.64895074 220.39277208 71.07153869 C220.36748497 64.93901378 220.3457102 58.80652097 220.33221817 52.67395782 C220.31941793 46.90547603 220.29738552 41.13710421 220.26817894 35.36868286 C220.25908722 33.24824968 220.25340923 31.12779878 220.2513485 29.00734711 C220.24803723 26.11844 220.23259054 23.22984688 220.21403503 20.34100342 C220.21693714 19.07446753 220.21693714 19.07446753 220.21989787 17.78234506 C220.17131669 12.74356823 219.75509902 9.64391265 216.49806213 5.82043457 C212.67868053 2.61215402 207.84368172 3.37167961 203.14682007 3.38768005 C202.23770817 3.38682563 201.32859627 3.3859712 200.39193553 3.38509089 C197.33329713 3.38343845 194.27471309 3.38895364 191.21607971 3.39440918 C189.02847291 3.39469113 186.84086602 3.39453317 184.65325928 3.39396667 C178.70320522 3.393679 172.7531712 3.39957093 166.80312181 3.40654063 C160.58910615 3.41277912 154.37509008 3.41337836 148.16107178 3.41456604 C137.72758137 3.41732402 127.29409784 3.42357619 116.86061096 3.43249512 C106.11354102 3.44167256 95.36647309 3.44875177 84.61940002 3.45300293 C83.62591275 3.45339701 83.62591275 3.45339701 82.61235503 3.45379906 C79.28970313 3.45510409 75.96705121 3.45636555 72.64439929 3.45761096 C45.07478177 3.46807204 17.50517247 3.48566867 -10.06443787 3.50793457 C-10.06443787 5.15793457 -10.06443787 6.80793457 -10.06443787 8.50793457 C-11.71443787 8.50793457 -13.36443787 8.50793457 -15.06443787 8.50793457 C-15.06443787 7.18793457 -15.06443787 5.86793457 -15.06443787 4.50793457 C-10.2607194 0.12906136 -6.15433013 -0.06555786 0 0 Z " fill="#494EE4" transform="translate(101.06443786621094,84.4920654296875)"/>
<path d="M0 0 C0.66 0 1.32 0 2 0 C3.625 2 3.625 2 5 4 C1.43513883 7.81071366 -0.45098422 8.94747819 -5.79379177 9.12863445 C-7.42448037 9.13546441 -9.05519767 9.13670292 -10.68589783 9.13371277 C-11.58402036 9.13597833 -12.48214289 9.13824388 -13.40748125 9.14057809 C-16.4291378 9.14692873 -19.45074961 9.14608805 -22.47241211 9.14526367 C-24.63382526 9.14825448 -26.79523787 9.15165682 -28.95664978 9.15544128 C-34.83672132 9.16429295 -40.71677832 9.16661987 -46.59685588 9.16725707 C-51.50018359 9.16820521 -56.40350788 9.17188236 -61.30683428 9.17542917 C-72.87146874 9.18357798 -84.43609542 9.18601299 -96.00073242 9.18530273 C-107.94371708 9.18470166 -119.88665661 9.19525851 -131.82962984 9.2110464 C-142.07255769 9.2241061 -152.31547077 9.2294873 -162.55840689 9.22884732 C-168.68084489 9.2285919 -174.8032428 9.23146777 -180.92567253 9.24202538 C-186.68185095 9.2516801 -192.43795072 9.25180363 -198.19413185 9.24450874 C-200.30974314 9.24345966 -202.42535925 9.24584486 -204.54096222 9.2518692 C-207.4231079 9.25954638 -210.30497908 9.25497276 -213.18711853 9.24723816 C-214.45058488 9.2549535 -214.45058488 9.2549535 -215.7395758 9.26282471 C-222.73052036 9.22120459 -222.73052036 9.22120459 -226 7 C-226 6.67 -226 6.34 -226 6 C-151.09 6 -76.18 6 1 6 C0.01 3.525 0.01 3.525 -1 1 C-0.67 0.67 -0.34 0.34 0 0 Z " fill="#353ADC" transform="translate(315,316)"/>
<path d="M0 0 C2.6163173 3.92447595 2.27152366 7.23663725 2.24050903 11.78874207 C2.24221788 12.69785396 2.24392673 13.60696586 2.24568737 14.54362661 C2.24899231 17.60232437 2.23796202 20.66080473 2.22705078 23.71948242 C2.22648688 25.90708918 2.2268028 28.09469632 2.22793579 30.28230286 C2.22851115 36.23238162 2.2167273 42.18238024 2.20278788 48.13244033 C2.19031091 54.34645291 2.18911242 60.56046719 2.18673706 66.77449036 C2.18122109 77.20799119 2.16871676 87.64146449 2.15087891 98.07495117 C2.13252403 108.82201998 2.11836561 119.56908079 2.10986328 130.31616211 C2.10933783 130.97848696 2.10881239 131.6408118 2.10827102 132.3232071 C2.10566096 135.64585897 2.10313805 138.96851089 2.10064721 142.29116285 C2.07972504 169.86079578 2.04453178 197.43039582 2 225 C1.01 225.33 0.02 225.66 -1 226 C-2.125 219.25 -2.125 219.25 -1 217 C-0.89189386 214.16603128 -0.84508818 211.35597955 -0.84178162 208.52133179 C-0.83684364 207.63349208 -0.83190566 206.74565236 -0.82681805 205.83090842 C-0.81138752 202.83828336 -0.80306744 199.84567983 -0.79467773 196.85302734 C-0.78510357 194.71482654 -0.77509377 192.57662766 -0.76467896 190.43843079 C-0.73757377 184.61849908 -0.71659466 178.79855922 -0.69667697 172.97859907 C-0.67485196 166.90202811 -0.64744627 160.82548245 -0.62062073 154.74893188 C-0.57064659 143.23528134 -0.52572532 131.72161679 -0.48259836 120.20793879 C-0.43326627 107.10292551 -0.37833324 93.99793761 -0.32291877 80.89294887 C-0.20902628 53.92865624 -0.10220312 26.96433928 0 0 Z " fill="#0405D7" transform="translate(320,93)"/>
<path d="M0 0 C0.8581492 0.0015486 1.7162984 0.0030972 2.60045213 0.00469273 C3.50503291 0.00242718 4.4096137 0.00016162 5.34160602 -0.00217259 C8.39711359 -0.00854334 11.45257716 -0.00768126 14.50809067 -0.00685817 C16.688913 -0.00984778 18.8697348 -0.01324985 21.05055588 -0.01703578 C26.99272732 -0.02590099 32.93488438 -0.02821497 38.87706178 -0.02885157 C43.82999568 -0.02979871 48.7829262 -0.03347483 53.7358588 -0.03702366 C64.75022254 -0.04471171 75.76457954 -0.04769142 86.77894578 -0.04701831 C87.4404425 -0.04697836 88.10193922 -0.0469384 88.7834813 -0.04689723 C89.44578304 -0.04685635 90.10808477 -0.04681547 90.79045626 -0.04677335 C101.52213942 -0.04636697 112.25378749 -0.05593305 122.9854605 -0.0700356 C133.99635513 -0.0843912 145.0072318 -0.09112296 156.01813591 -0.09044182 C162.20320181 -0.09018635 168.38822803 -0.09306453 174.57328576 -0.10361987 C180.39017482 -0.11327502 186.20698605 -0.11339783 192.0238778 -0.10610324 C194.16206318 -0.10505412 196.30025334 -0.1074396 198.43843049 -0.1134637 C201.35133564 -0.12114049 204.26396916 -0.11656746 207.17686814 -0.10883266 C208.02832518 -0.11397622 208.87978221 -0.11911978 209.75704098 -0.12441921 C216.82226028 -0.08279873 216.82226028 -0.08279873 220.0791356 2.1384055 C220.0791356 2.7984055 220.0791356 3.4584055 220.0791356 4.1384055 C221.0691356 4.6334055 221.0691356 4.6334055 222.0791356 5.1384055 C221.4191356 5.1384055 220.7591356 5.1384055 220.0791356 5.1384055 C220.0791356 5.7984055 220.0791356 6.4584055 220.0791356 7.1384055 C219.0891356 6.8084055 218.0991356 6.4784055 217.0791356 6.1384055 C217.0791356 5.4784055 217.0791356 4.8184055 217.0791356 4.1384055 C216.0891356 4.1384055 215.0991356 4.1384055 214.0791356 4.1384055 C214.0791356 3.4784055 214.0791356 2.8184055 214.0791356 2.1384055 C141.8091356 2.1384055 69.5391356 2.1384055 -4.9208644 2.1384055 C-4.5908644 3.4584055 -4.2608644 4.7784055 -3.9208644 6.1384055 C-5.2408644 6.4684055 -6.5608644 6.7984055 -7.9208644 7.1384055 C-7.2608644 6.8084055 -6.6008644 6.4784055 -5.9208644 6.1384055 C-6.1993019 4.931843 -6.1993019 4.931843 -6.4833644 3.7009055 C-6.6277394 2.8552805 -6.7721144 2.0096555 -6.9208644 1.1384055 C-5.07361834 -0.70884057 -2.45881737 0.01025871 0 0 Z " fill="#0303E7" transform="translate(96.92086440324783,86.8615944981575)"/>
<path d="M0 0 C0.66 0 1.32 0 2 0 C1.47731534 2.76276177 0.89130413 5.3260876 0 8 C0.33 8.66 0.66 9.32 1 10 C-1.97 10 -4.94 10 -8 10 C-8.66 8.68 -9.32 7.36 -10 6 C-8.63875 5.62875 -8.63875 5.62875 -7.25 5.25 C-3.87227303 3.95087424 -2.42480947 2.59801015 0 0 Z " fill="#0203ED" transform="translate(97,312)"/>
<path d="M0 0 C4.95 0 9.9 0 15 0 C15 0.99 15 1.98 15 3 C10.05 3 5.1 3 0 3 C0 2.01 0 1.02 0 0 Z " fill="#090F13" transform="translate(111,405)"/>
<path d="M0 0 C0.99 0.33 1.98 0.66 3 1 C3 2.98 3 4.96 3 7 C2.01 7.33 1.02 7.66 0 8 C0 5.36 0 2.72 0 0 Z " fill="#090B0C" transform="translate(0,310)"/>
<path d="M0 0 C0.66 1.32 1.32 2.64 2 4 C-0.1385485 6.1385485 -1.13275314 6.42655063 -4 7 C-4 4 -4 4 -2 1.8125 C-1.34 1.214375 -0.68 0.61625 0 0 Z " fill="#DBDEF9" transform="translate(321,318)"/>
<path d="M0 0 C0.66 0.66 1.32 1.32 2 2 C1.360625 2.268125 0.72125 2.53625 0.0625 2.8125 C-2.33131686 3.88667752 -2.33131686 3.88667752 -3 7 C-3.33 5.68 -3.66 4.36 -4 3 C-2.68 2.01 -1.36 1.02 0 0 Z " fill="#DDE1FB" transform="translate(88,85)"/>
</svg>
