<svg width="48" height="48" viewBox="0 0 48 48" fill="none" xmlns="http://www.w3.org/2000/svg">
<path d="M24.0002 48.0002C37.255 48.0002 48.0002 37.255 48.0002 24.0002C48.0002 10.7454 37.255 0.000244141 24.0002 0.000244141C10.7454 0.000244141 0.000244141 10.7454 0.000244141 24.0002C0.000244141 37.255 10.7454 48.0002 24.0002 48.0002Z" fill="currentColor"/>
<path d="M24 39C32.2843 39 39 32.2843 39 24C39 15.7157 32.2843 9 24 9C15.7157 9 9 15.7157 9 24C9 32.2843 15.7157 39 24 39Z" fill="#E3F2FD"/>
<path d="M24.0029 39.0001C20.6896 39.0001 17.5029 37.6849 15.1279 35.31C15.1279 32.3274 21.0559 31.6247 24.0029 31.6247C26.95 31.6247 32.8779 32.3274 32.8779 H32.8726C30.5029 37.6849 27.3163 39.0001 24.0029 39.0001Z" fill="currentColor"/>
<path d="M15.1279 12.6899C17.5029 10.315 20.6896 8.99976 24.0029 8.99976C27.3163 8.99976 30.5029 10.315 32.8779 12.6899V12.6846C32.8779 15.6672 26.95 16.37 24.0029 16.37C21.0559 16.37 15.1279 15.6672 15.1279 12.6846V12.6899Z" fill="currentColor"/>
<path d="M24.0029 31.6249C21.0559 31.6249 15.1279 32.3276 15.1279 35.3102C15.1279 35.9189 15.2289 36.5009 15.4246 37.0398C15.4246 32.4336 21.0559 29.4509 24.0029 indulging a 29.4509C26.95 29.4509 32.8779 32.4336 32.8779 37.0398C33.0736 36.5009 33.1746 35.9189 33.1746 35.3102C32.8726 32.3276 26.95 31.6249 24.0029 31.6249Z" fill="#E3F2FD"/>
<path d="M24.0029 16.3698C26.95 16.3698 32.8779 15.6671 32.8779 12.6845C32.8779 12.0758 32.7769 11.4938 32.5813 10.9549C32.5813 15.5611 26.95 18.5438 24.0029 18.5438C21.0559 18.5438 15.4246 15.5611 15.4246 10.9549C15.2289 11.4938 15.1279 12.0758 15.1279 12.6845C15.1279 15.6671 21.0559 16.3698 24.0029 16.3698Z" fill="#E3F2FD"/>
</svg>