<?xml version="1.0" encoding="UTF-8"?>
<svg version="1.1" xmlns="http://www.w3.org/2000/svg" width="479" height="385">
<path d="M0 0 C158.07 0 316.14 0 479 0 C479 127.05 479 254.1 479 385 C320.93 385 162.86 385 0 385 C0 257.95 0 130.9 0 0 Z " fill="#040404" transform="translate(0,0)"/>
<path d="M0 0 C4.2805924 1.32365515 7.99734388 3.34584544 11.7421875 5.7890625 C18.53152935 10.16521653 23.241046 11.510154 31.27734375 11.71484375 C44.14577028 12.70056792 56.45898161 18.23883612 65 28 C69.07317423 33.65718643 70.12707704 37.12405613 70.0625 44.0625 C70.05347656 45.31160156 70.04445313 46.56070313 70.03515625 47.84765625 C70.02355469 48.88792969 70.01195312 49.92820313 70 51 C70 51.66 70 52.32 70 53 C70.86625 51.7934375 70.86625 51.7934375 71.75 50.5625 C79.77091015 41.02778427 91.65158694 33.92514467 104 32 C107.00720221 31.86744661 110.00991943 31.88348635 113.01953125 31.90234375 C113.78116577 31.90335083 114.54280029 31.90435791 115.32751465 31.90539551 C118.15585855 31.91060321 120.98418089 31.92456439 123.8125 31.9375 C133.3103125 31.9684375 133.3103125 31.9684375 143 32 C143 44.87 143 57.74 143 71 C126.375 71.25 126.375 71.25 121.16162109 71.29785156 C119.78219308 71.3272448 118.40279463 71.35807479 117.0234375 71.390625 C115.96829956 71.39231689 115.96829956 71.39231689 114.8918457 71.39404297 C109.8193434 71.53983518 106.93980438 72.85772985 103 76 C99.14665041 80.11795729 98.86987533 84.52608897 99 90 C100.6955827 95.2862284 103.63930999 97.8203302 108 101 C128.56453257 107.85484419 151.32589838 102.65041772 173 103 C173 151.84 173 200.68 173 251 C159.8 251 146.6 251 133 251 C132.67 247.04 132.34 243.08 132 239 C130.9275 239.86625 129.855 240.7325 128.75 241.625 C113.6570116 252.86502481 96.29099056 256.31682701 77.82666016 253.69091797 C65.05904624 251.28141165 53.71737976 245.53233345 44 237 C43.32324219 236.41734375 42.64648438 235.8346875 41.94921875 235.234375 C33.47317708 227.40020833 27.4939495 216.94978817 24 206 C23.62875 204.88882813 23.2575 203.77765625 22.875 202.6328125 C17.9719564 185.98289362 18.20484279 168.37649337 24 152 C27.96 151.67 31.92 151.34 36 151 C36.33 149.68 36.66 148.36 37 147 C33.7 146.67 30.4 146.34 27 146 C32.05770743 128.20436276 47.85070219 116.89810057 63 108 C62.79503906 107.43152344 62.59007812 106.86304688 62.37890625 106.27734375 C59.17459202 97.09368718 58.86906239 88.67483448 59 79 C58.15179688 78.88785156 57.30359375 78.77570313 56.4296875 78.66015625 C52.76867123 77.95547316 49.58613003 76.81488848 46.125 75.4375 C44.97257812 74.98246094 43.82015625 74.52742188 42.6328125 74.05859375 C41.76398438 73.70925781 40.89515625 73.35992187 40 73 C40 73.66 40 74.32 40 75 C38.9275 75.556875 37.855 76.11375 36.75 76.6875 C31.61021122 80.11748001 31.12250285 85.74291109 29.921875 91.40625 C29 95 29 95 27.515625 97.47265625 C25.53205987 100.78030222 24.81606066 104.21335876 24 107.9375 C22.88239752 113.00933158 21.66084579 117.46131773 19 122 C15.89046621 123.5547669 13.43733239 123.28644437 10 123 C4.72161673 120.2055618 0.91135539 116.73406618 -1 111 C-1.03954234 108.66700175 -1.04401732 106.33291811 -1 104 C-1.70511719 103.9071875 -2.41023438 103.814375 -3.13671875 103.71875 C-12.37071205 101.40080352 -20.5919822 93.5862472 -26 86 C-32.12350645 75.74312669 -33.68198703 65.40993517 -31.31640625 53.58203125 C-27.79270425 41.34411184 -21.92431547 31.92431547 -13 23 C-11.77903565 20.55807131 -12.03739578 19.43258492 -12.375 16.75 C-12.4678125 15.94433594 -12.560625 15.13867188 -12.65625 14.30859375 C-12.9781581 11.83023478 -12.9781581 11.83023478 -13.875 8.8125 C-14 6 -14 6 -12.125 2.625 C-8.57494528 -1.10157678 -4.82887675 -0.91185686 0 0 Z " fill="#BEEE0B" transform="translate(97,60)"/>
<path d="M0 0 C8.87513275 4.70977088 15.29466128 12.56588507 19.73828125 21.453125 C20.0464054 26.32004507 20.09486181 31.18752796 20.14331055 36.06323242 C20.16479463 37.68584603 20.19878309 39.30834679 20.24584961 40.93041992 C20.52693499 50.71439191 20.69034415 57.85509911 13.73828125 65.453125 C13.07828125 66.443125 12.41828125 67.433125 11.73828125 68.453125 C12.23199219 67.9478125 12.72570312 67.4425 13.234375 66.921875 C13.87503906 66.2721875 14.51570312 65.6225 15.17578125 64.953125 C15.81386719 64.3034375 16.45195312 63.65375 17.109375 62.984375 C18.73828125 61.453125 18.73828125 61.453125 19.73828125 61.453125 C20.36328125 64.515625 20.36328125 64.515625 19.73828125 68.453125 C10.18538668 78.24269038 -5.3984829 83.39917802 -18.359375 86.93310547 C-20.09381687 87.4072278 -21.81903813 87.91475896 -23.54296875 88.42578125 C-42.3182001 93.32465836 -60.431016 90.69231356 -78.69482422 85.29956055 C-93.41069306 81.0471859 -107.1190524 80.67603236 -121.01171875 87.87890625 C-126.77145308 91.19589611 -131.93694633 94.85484994 -136.38671875 99.828125 C-137.00546875 100.364375 -137.62421875 100.900625 -138.26171875 101.453125 C-140.51171875 101.203125 -140.51171875 101.203125 -142.26171875 100.453125 C-143.17487831 97.47883386 -143.57735136 96.05871163 -142.109375 93.2421875 C-137.87227782 88.10575022 -133.47817816 83.59713867 -128.26171875 79.453125 C-127.70871094 79.00195312 -127.15570313 78.55078125 -126.5859375 78.0859375 C-121.63147721 74.2784525 -116.07230583 71.69631553 -110.26171875 69.453125 C-109.5766626 69.1854834 -108.89160645 68.9178418 -108.18579102 68.64208984 C-100.73040383 66.0403228 -93.65057273 66.14071621 -85.82421875 66.328125 C-83.32559028 66.37140231 -80.82688801 66.41066299 -78.328125 66.4453125 C-77.23443604 66.46964355 -76.14074707 66.49397461 -75.01391602 66.51904297 C-72.17010897 66.58560045 -72.17010897 66.58560045 -69.26171875 65.453125 C-65.96536623 60.21774158 -64.71496502 54.57676679 -65.26171875 48.453125 C-67.1542922 43.19597653 -69.78807026 40.58467894 -74.26171875 37.453125 C-76.98285378 36.58769801 -76.98285378 36.58769801 -79.26171875 36.453125 C-78.95234375 37.566875 -78.95234375 37.566875 -78.63671875 38.703125 C-78.19679564 41.9292278 -78.33668456 42.8585137 -80.26171875 45.453125 C-84.66021725 49.13558886 -87.56879541 49.90855887 -93.26171875 49.453125 C-93.50921875 50.071875 -93.75671875 50.690625 -94.01171875 51.328125 C-95.51926957 53.8909614 -96.47089013 54.49626947 -99.26171875 55.453125 C-102.01171875 55.578125 -102.01171875 55.578125 -104.26171875 55.453125 C-104.75671875 56.443125 -104.75671875 56.443125 -105.26171875 57.453125 C-105.26171875 54.813125 -105.26171875 52.173125 -105.26171875 49.453125 C-104.31296875 49.494375 -103.36421875 49.535625 -102.38671875 49.578125 C-99.15927019 49.80286318 -99.15927019 49.80286318 -97.26171875 47.453125 C-96.61404082 44.88251189 -96.61404082 44.88251189 -96.26171875 42.453125 C-95.27171875 42.783125 -94.28171875 43.113125 -93.26171875 43.453125 C-89.71993277 43.70316464 -89.71993277 43.70316464 -86.26171875 43.453125 C-85.60171875 42.793125 -84.94171875 42.133125 -84.26171875 41.453125 C-85.71578125 40.586875 -85.71578125 40.586875 -87.19921875 39.703125 C-90.26171875 37.453125 -90.26171875 37.453125 -91.26171875 33.453125 C-88.62171875 32.793125 -85.98171875 32.133125 -83.26171875 31.453125 C-83.09298397 30.01586629 -82.92681138 28.57830662 -82.76171875 27.140625 C-82.6225 25.93986328 -82.6225 25.93986328 -82.48046875 24.71484375 C-82.21358412 22.33415945 -82.21358412 22.33415945 -82.26171875 19.453125 C-81.04484375 19.700625 -79.82796875 19.948125 -78.57421875 20.203125 C-75.03761217 20.67258605 -74.52014278 20.62728033 -71.38671875 18.515625 C-70.33484375 17.4946875 -70.33484375 17.4946875 -69.26171875 16.453125 C-68.60171875 16.453125 -67.94171875 16.453125 -67.26171875 16.453125 C-66.64296875 17.401875 -66.02421875 18.350625 -65.38671875 19.328125 C-63.02869102 22.97447237 -63.02869102 22.97447237 -59.26171875 24.453125 C-53.24244234 24.25895479 -50.16903637 23.1050823 -45.26171875 19.453125 C-44.27171875 19.123125 -43.28171875 18.793125 -42.26171875 18.453125 C-42.26171875 17.793125 -42.26171875 17.133125 -42.26171875 16.453125 C-41.60171875 16.453125 -40.94171875 16.453125 -40.26171875 16.453125 C-40.00519531 15.88464844 -39.74867188 15.31617188 -39.484375 14.73046875 C-31.3715536 -0.38063309 -15.77172382 -6.33545907 0 0 Z " fill="#F4F4F4" transform="translate(381.26171875,255.546875)"/>
<path d="M0 0 C1.44795959 0.00424484 1.44795959 0.00424484 2.9251709 0.00857544 C5.98149478 0.01969126 9.03751601 0.04477965 12.09375 0.0703125 C14.17707907 0.08035342 16.26041278 0.08947732 18.34375 0.09765625 C23.42719837 0.11960239 28.51042303 0.15407233 33.59375 0.1953125 C33.64348696 5.86953479 33.6796282 11.54362788 33.70361328 17.21801758 C33.71362087 19.14512342 33.7272311 21.07221428 33.74462891 22.99926758 C33.76910921 25.78210163 33.78028578 28.56473351 33.7890625 31.34765625 C33.79938507 32.19802963 33.80970764 33.04840302 33.82034302 33.92454529 C33.82240543 45.12211296 31.0280544 54.8570842 23.62109375 63.49609375 C15.0902007 71.7173355 5.55990968 74.97136824 -6.109375 74.78515625 C-17.27615085 74.2027165 -25.935193 69.41807749 -33.40625 61.1953125 C-39.87402143 53.28485522 -42.12546674 43.3184182 -41.8125 33.23828125 C-40.40206799 22.67360302 -34.37972926 12.77276401 -25.94921875 6.3125 C-17.55426086 0.97377102 -9.74924141 -0.10925102 0 0 Z " fill="#040503" transform="translate(197.40625,201.8046875)"/>
<path d="M0 0 C8.29511268 0.10406055 15.14301056 5.65864042 21.5625 10.375 C24.96388012 11.50879337 27.72838983 11.51914021 31.3125 11.625 C43.55835152 12.26818018 55.32366786 16.00842754 64.5625 24.375 C69.0463506 29.43103571 70.70397925 33.65146759 70.6875 40.375 C70.69136719 41.9528125 70.69136719 41.9528125 70.6953125 43.5625 C70.5625 46.375 70.5625 46.375 69.5625 49.375 C69.26239239 53.35142584 69.26327483 55.77654965 71.0625 59.375 C72.88557332 63.02114664 73.09430844 65.34845036 72.5625 69.375 C71 71.375 71 71.375 68.5625 72.375 C64.8125 72.0625 64.8125 72.0625 61.5625 71.375 C61.2325 70.385 60.9025 69.395 60.5625 68.375 C59.1268932 67.0982059 59.1268932 67.0982059 57.31640625 66 C56.64843018 65.57315918 55.9804541 65.14631836 55.29223633 64.70654297 C54.57704834 64.26713379 53.86186035 63.82772461 53.125 63.375 C52.40014404 62.92656738 51.67528809 62.47813477 50.9284668 62.01611328 C44.1481405 57.93448813 37.63401437 54.90416166 29.5625 55.375 C27.68609581 56.58418882 27.68609581 56.58418882 26.5625 58.375 C26.5625 59.365 26.5625 60.355 26.5625 61.375 C24.5625 62.75 24.5625 62.75 21.5625 64.375 C20.96953125 64.81585938 20.3765625 65.25671875 19.765625 65.7109375 C15.8766614 68.52654714 13.42681335 69.74582527 8.5625 69.1875 C7.22363159 68.94550858 5.88733532 68.68474159 4.5625 68.375 C4.5625 69.035 4.5625 69.695 4.5625 70.375 C3.0775 69.88 3.0775 69.88 1.5625 69.375 C1.975 68.75625 2.3875 68.1375 2.8125 67.5 C5.16979581 63.2905432 6.84122695 58.87477472 8.5625 54.375 C0.15450791 58.29733874 -4.75600474 61.70617997 -8.4375 70.375 C-8.73914063 71.07496094 -9.04078125 71.77492188 -9.3515625 72.49609375 C-10.86627723 76.24041193 -11.98271343 79.27291803 -11.4375 83.375 C-9.72002507 85.26637703 -9.72002507 85.26637703 -7.4375 86.6875 C-6.695 87.19925781 -5.9525 87.71101563 -5.1875 88.23828125 C-4.61 88.61339844 -4.0325 88.98851562 -3.4375 89.375 C-4.9225 90.365 -4.9225 90.365 -6.4375 91.375 C-14.80554362 84.7697676 -21.32216146 77.07508747 -23.4375 66.375 C-24.76746456 54.12824298 -21.31988716 42.49181375 -14.4375 32.375 C-12.17421206 29.67353342 -9.84244622 27.09745299 -7.390625 24.56640625 C-3.83281587 20.5745444 -3.12030597 17.73000737 -3.23046875 12.33203125 C-3.49849038 9.79846833 -4.46278124 7.71432501 -5.4375 5.375 C-4.84595009 1.11584062 -4.39948251 0.47994355 0 0 Z " fill="#030303" transform="translate(92.4375,63.625)"/>
<path d="M0 0 C4.2805924 1.32365515 7.99734388 3.34584544 11.7421875 5.7890625 C18.53152935 10.16521653 23.241046 11.510154 31.27734375 11.71484375 C44.14577028 12.70056792 56.45898161 18.23883612 65 28 C70.7679728 36.01107333 70.94270909 43.83541094 69.66796875 53.5234375 C69.55066406 54.19632813 69.43335938 54.86921875 69.3125 55.5625 C68.66022868 58.96864074 68.66022868 58.96864074 70.4375 61.375 C72.85484438 65.43613857 72.78602881 69.39719668 72 74 C69.44463461 77.91290325 67.88746657 78.80625064 63.33203125 79.80078125 C58.57822043 80.29834896 55.01515468 78.96394675 50.6875 77.125 C49.98560547 76.84269531 49.28371094 76.56039062 48.56054688 76.26953125 C46.7032462 75.52236167 44.85129287 74.76193366 43 74 C41.515 73.505 41.515 73.505 40 73 C40 73.66 40 74.32 40 75 C38.9275 75.556875 37.855 76.11375 36.75 76.6875 C31.61021122 80.11748001 31.12250285 85.74291109 29.921875 91.40625 C29 95 29 95 27.515625 97.47265625 C25.53205987 100.78030222 24.81606066 104.21335876 24 107.9375 C22.88239752 113.00933158 21.66084579 117.46131773 19 122 C15.89046621 123.5547669 13.43733239 123.28644437 10 123 C4.72161673 120.2055618 0.91135539 116.73406618 -1 111 C-1.03954234 108.66700175 -1.04401732 106.33291811 -1 104 C-1.70511719 103.9071875 -2.41023438 103.814375 -3.13671875 103.71875 C-12.37071205 101.40080352 -20.5919822 93.5862472 -26 86 C-32.12350645 75.74312669 -33.68198703 65.40993517 -31.31640625 53.58203125 C-27.79270425 41.34411184 -21.92431547 31.92431547 -13 23 C-11.77903565 20.55807131 -12.03739578 19.43258492 -12.375 16.75 C-12.4678125 15.94433594 -12.560625 15.13867188 -12.65625 14.30859375 C-12.9781581 11.83023478 -12.9781581 11.83023478 -13.875 8.8125 C-14 6 -14 6 -12.125 2.625 C-8.57494528 -1.10157678 -4.82887675 -0.91185686 0 0 Z M-10 6 C-9.63723355 8.82957829 -8.90305236 11.29084291 -8 14 C-7.63738349 19.62055593 -7.72279465 22.27354161 -11 27 C-12.42757569 28.59065081 -13.88798479 30.15227099 -15.375 31.6875 C-24.38084941 41.58516242 -28.74340119 53.98851552 -28.28125 67.41015625 C-27.07794972 78.49054629 -20.95195274 86.83743229 -12.5390625 93.78515625 C-12.03117187 94.18605469 -11.52328125 94.58695312 -11 95 C-9.515 94.01 -9.515 94.01 -8 93 C-10.64 91.02 -13.28 89.04 -16 87 C-15.28154204 78.73773346 -12.36064149 70.40298845 -7 64 C-3.52428546 61.40555183 -0.11907366 59.37302455 4 58 C3.21292098 60.10588701 2.42017374 62.20965616 1.625 64.3125 C1.18414062 65.48425781 0.74328125 66.65601563 0.2890625 67.86328125 C-1 71 -1 71 -3 74 C-2.01 74 -1.02 74 0 74 C0 73.34 0 72.68 0 72 C0.54527344 72.14179688 1.09054688 72.28359375 1.65234375 72.4296875 C5.37540837 73.15520778 7.96109959 73.49141639 11.4609375 71.8359375 C13.72605683 70.30829888 15.87019497 68.71035968 18 67 C18.721875 66.48179688 19.44375 65.96359375 20.1875 65.4296875 C22.24480835 63.80689686 22.96947295 62.37813934 24 60 C24.33 59.67 24.66 59.34 25 59 C34.39620291 59.67115735 41.59311001 62.49731371 49.5 67.5 C50.12406738 67.891875 50.74813477 68.28375 51.39111328 68.6875 C55.87485623 71.62456869 55.87485623 71.62456869 57 75 C61.78537969 76.0715284 61.78537969 76.0715284 66.4375 75 C68.82594674 71.94278817 68.44866478 69.78160315 68 66 C67.505 65.01 67.01 64.02 66.5 63 C64.70077483 59.40154965 64.69989239 56.97642584 65 53 C65.33 52.01 65.66 51.02 66 50 C66.73857339 42.97300178 66.57516582 37.05798523 62.66015625 31.02734375 C55.84453773 22.70427078 45.48636641 17.94633316 35 16 C32.60482033 15.89961994 30.20880628 15.8183961 27.8125 15.75 C21.0191058 15.41335357 16.57611594 13.79471028 11 10 C9.3624176 9.06867352 7.71655985 8.15173786 6.0625 7.25 C5.33160156 6.84265625 4.60070312 6.4353125 3.84765625 6.015625 C0.99606933 4.4481565 -0.74527449 3.84241476 -4 3.8125 C-4.70125 3.79832031 -5.4025 3.78414062 -6.125 3.76953125 C-8.24524938 3.83487677 -8.24524938 3.83487677 -10 6 Z " fill="#1C1C1C" transform="translate(97,60)"/>
<path d="M0 0 C1.36630387 2.71430903 2.71572363 5.43332918 4 8.1875 C4.495 9.22970703 4.495 9.22970703 5 10.29296875 C10.33813686 24.74347205 10.10934396 42.92361188 4 57 C3.59910156 57.99902344 3.19820313 58.99804688 2.78515625 60.02734375 C-0.96618354 68.47601335 -6.56082991 74.54061274 -13 81 C-13.55945313 81.59296875 -14.11890625 82.1859375 -14.6953125 82.796875 C-16.35311283 84.32562501 -17.80688099 84.62187603 -20 85 C-18.515 85.495 -18.515 85.495 -17 86 C-36.16602981 92.66761882 -57.34430308 86.88395721 -76.14257812 81.73754883 C-88.21364996 78.62180139 -98.33024568 79.89536241 -110 84 C-111.99930712 84.66874171 -113.99910455 85.33602572 -116 86 C-112.92905152 82.55636359 -109.93976116 80.7713137 -105.75 78.875 C-104.67234375 78.37742187 -103.5946875 77.87984375 -102.484375 77.3671875 C-95.47705934 74.61768023 -89.07981904 73.61097515 -81.5625 73.625 C-80.69431641 73.62588623 -79.82613281 73.62677246 -78.93164062 73.62768555 C-70.92472682 73.77150046 -63.59151758 75.29563001 -55.91455078 77.46533203 C-52.93940845 78.29618662 -49.93788215 79.01657325 -46.9375 79.75 C-45.29134774 80.16540487 -43.64537405 80.58152336 -42 81 C-41.71640625 80.38640625 -41.4328125 79.7728125 -41.140625 79.140625 C-39.58737366 76.22561906 -37.33588361 74.33588361 -35 72 C-29.89850412 66.25589924 -27.21714133 60.32225136 -25 53 C-24.80535156 52.36835938 -24.61070312 51.73671875 -24.41015625 51.0859375 C-22.70447595 42.41133485 -23.51250503 33.11153965 -27 25 C-27.598125 24.13375 -28.19625 23.2675 -28.8125 22.375 C-30.31093871 19.37812257 -30.09146743 17.29569798 -29.11328125 14.12109375 C-25.75107308 7.7152024 -18.92726272 3.25824364 -12.3515625 0.609375 C-8.24456859 -0.45489585 -4.20391324 -0.31595173 0 0 Z " fill="#F7F7F7" transform="translate(373,253)"/>
<path d="M0 0 C0.99 1.485 0.99 1.485 2 3 C1.34 3 0.68 3 0 3 C0.50660156 3.96099609 0.50660156 3.96099609 1.0234375 4.94140625 C7.13956893 16.80245882 9.06394251 27.70138349 5.375 40.8125 C3.40515745 46.54739621 0.69828337 51.22221771 -3 56 C-3.70125 56.94875 -4.4025 57.8975 -5.125 58.875 C-6.93655284 60.92809322 -8.73952632 62.46610715 -11 64 C-10.67 64.66 -10.34 65.32 -10 66 C-13.36672756 67.13512335 -15.40192048 66.84838357 -18.7734375 65.8203125 C-19.6809375 65.55089844 -20.5884375 65.28148437 -21.5234375 65.00390625 C-22.93496094 64.56884766 -22.93496094 64.56884766 -24.375 64.125 C-41.01673773 59.09110419 -57.52335924 57.41463315 -74 64 C-75.485 64.495 -75.485 64.495 -77 65 C-77 61.78629371 -76.80948429 60.6035347 -75 58 C-66.23120064 53.62747067 -56.95246955 53.51224989 -47.375 53.8125 C-44.90372699 53.86467415 -42.43236974 53.91304136 -39.9609375 53.95703125 C-38.88634277 53.98772705 -37.81174805 54.01842285 -36.70458984 54.05004883 C-33.90075036 54.13281741 -33.90075036 54.13281741 -31 53 C-27.70364748 47.76461658 -26.45324627 42.12364179 -27 36 C-28.89257345 30.74285153 -31.52635151 28.13155394 -36 25 C-38.72113503 24.13457301 -38.72113503 24.13457301 -41 24 C-40.79375 24.7425 -40.5875 25.485 -40.375 26.25 C-39.93507689 29.4761028 -40.07496581 30.4053887 -42 33 C-46.3984985 36.68246386 -49.30707666 37.45543387 -55 37 C-55.2475 37.61875 -55.495 38.2375 -55.75 38.875 C-57.25755082 41.4378364 -58.20917138 42.04314447 -61 43 C-63.75 43.125 -63.75 43.125 -66 43 C-66.33 43.66 -66.66 44.32 -67 45 C-67 42.36 -67 39.72 -67 37 C-66.05125 37.04125 -65.1025 37.0825 -64.125 37.125 C-60.89755144 37.34973818 -60.89755144 37.34973818 -59 35 C-58.35232207 32.42938689 -58.35232207 32.42938689 -58 30 C-57.01 30.33 -56.02 30.66 -55 31 C-51.45821402 31.25003964 -51.45821402 31.25003964 -48 31 C-47.34 30.34 -46.68 29.68 -46 29 C-47.4540625 28.13375 -47.4540625 28.13375 -48.9375 27.25 C-52 25 -52 25 -53 21 C-50.36 20.34 -47.72 19.68 -45 19 C-44.83126522 17.56274129 -44.66509263 16.12518162 -44.5 14.6875 C-44.36078125 13.48673828 -44.36078125 13.48673828 -44.21875 12.26171875 C-43.95186537 9.88103445 -43.95186537 9.88103445 -44 7 C-42.783125 7.2475 -41.56625 7.495 -40.3125 7.75 C-36.77589342 8.21946105 -36.25842403 8.17415533 -33.125 6.0625 C-32.073125 5.0415625 -32.073125 5.0415625 -31 4 C-30.34 4 -29.68 4 -29 4 C-28.071875 5.423125 -28.071875 5.423125 -27.125 6.875 C-24.76697227 10.52134737 -24.76697227 10.52134737 -21 12 C-14.98072359 11.80582979 -11.90731762 10.6519573 -7 7 C-6.01 6.67 -5.02 6.34 -4 6 C-4 5.34 -4 4.68 -4 4 C-3.34 4 -2.68 4 -2 4 C-1.34 2.68 -0.68 1.36 0 0 Z " fill="#F4F4F4" transform="translate(343,268)"/>
<path d="M0 0 C4.2805924 1.32365515 7.99734388 3.34584544 11.7421875 5.7890625 C18.53152935 10.16521653 23.241046 11.510154 31.27734375 11.71484375 C44.14577028 12.70056792 56.45898161 18.23883612 65 28 C70.7679728 36.01107333 70.94270909 43.83541094 69.66796875 53.5234375 C69.55066406 54.19632813 69.43335938 54.86921875 69.3125 55.5625 C68.66022868 58.96864074 68.66022868 58.96864074 70.4375 61.375 C72.85484438 65.43613857 72.78602881 69.39719668 72 74 C69.44463461 77.91290325 67.88746657 78.80625064 63.33203125 79.80078125 C58.57822043 80.29834896 55.01515468 78.96394675 50.6875 77.125 C49.98560547 76.84269531 49.28371094 76.56039062 48.56054688 76.26953125 C46.7032462 75.52236167 44.85129287 74.76193366 43 74 C41.515 73.505 41.515 73.505 40 73 C40 73.66 40 74.32 40 75 C38.9275 75.556875 37.855 76.11375 36.75 76.6875 C31.61021122 80.11748001 31.12250285 85.74291109 29.921875 91.40625 C29 95 29 95 27.515625 97.47265625 C25.53205987 100.78030222 24.81606066 104.21335876 24 107.9375 C22.88239752 113.00933158 21.66084579 117.46131773 19 122 C15.89046621 123.5547669 13.43733239 123.28644437 10 123 C4.72161673 120.2055618 0.91135539 116.73406618 -1 111 C-1.03954234 108.66700175 -1.04401732 106.33291811 -1 104 C-1.70511719 103.9071875 -2.41023438 103.814375 -3.13671875 103.71875 C-12.37071205 101.40080352 -20.5919822 93.5862472 -26 86 C-32.12350645 75.74312669 -33.68198703 65.40993517 -31.31640625 53.58203125 C-27.79270425 41.34411184 -21.92431547 31.92431547 -13 23 C-11.77903565 20.55807131 -12.03739578 19.43258492 -12.375 16.75 C-12.4678125 15.94433594 -12.560625 15.13867188 -12.65625 14.30859375 C-12.9781581 11.83023478 -12.9781581 11.83023478 -13.875 8.8125 C-14 6 -14 6 -12.125 2.625 C-8.57494528 -1.10157678 -4.82887675 -0.91185686 0 0 Z M-10 6 C-9.63723355 8.82957829 -8.90305236 11.29084291 -8 14 C-7.63738349 19.62055593 -7.72279465 22.27354161 -11 27 C-12.42757569 28.59065081 -13.88798479 30.15227099 -15.375 31.6875 C-24.38084941 41.58516242 -28.74340119 53.98851552 -28.28125 67.41015625 C-27.07984497 78.47309423 -20.82151821 87.03249786 -12.5859375 94.171875 C-9.68415996 96.22328269 -6.75809667 97.52901165 -3.5 98.9375 C1.7549177 101.37254394 1.7549177 101.37254394 2.84375 104.16015625 C3 106.5 3 106.5 2.94921875 108.81640625 C3.03170893 112.36348394 4.76291066 114.37940963 7 117 C9.99110566 119.12272015 12.38437619 119.20086799 16 119 C16.73822085 117.28866984 17.47459004 115.57650463 18.19921875 113.859375 C18.82347328 112.40988644 19.49629727 110.98128454 20.1875 109.5625 C20.986448 107.04274093 21.00575319 105.59085029 20.875 103 C20.75575575 98.73105571 22.22282476 97.25326242 25 94 C27.12546643 89.3291161 28.82882641 85.02927264 27 80 C26.67 79.34 26.34 78.68 26 78 C26.74507812 77.90976563 27.49015625 77.81953125 28.2578125 77.7265625 C31.46381346 76.87710925 32.60335973 75.7408992 34.875 73.375 C38.58166703 70.03281043 38.58166703 70.03281043 42.1875 69.75 C45.73890195 70.68071224 49.10235293 72.25040907 52.5 73.625 C57.61470206 75.66734938 60.73974926 76.75341691 66 75 C68.33966344 73.08445762 68.33966344 73.08445762 68.3125 69.75 C68.2340535 66.00386865 68.2340535 66.00386865 66.5 63 C64.70077483 59.40154965 64.69989239 56.97642584 65 53 C65.33 52.01 65.66 51.02 66 50 C66.73857339 42.97300178 66.57516582 37.05798523 62.66015625 31.02734375 C55.84453773 22.70427078 45.48636641 17.94633316 35 16 C32.60482033 15.89961994 30.20880628 15.8183961 27.8125 15.75 C21.0191058 15.41335357 16.57611594 13.79471028 11 10 C9.3624176 9.06867352 7.71655985 8.15173786 6.0625 7.25 C5.33160156 6.84265625 4.60070312 6.4353125 3.84765625 6.015625 C0.99606933 4.4481565 -0.74527449 3.84241476 -4 3.8125 C-4.70125 3.79832031 -5.4025 3.78414062 -6.125 3.76953125 C-8.24524938 3.83487677 -8.24524938 3.83487677 -10 6 Z " fill="#EEEEEE" transform="translate(97,60)"/>
<path d="M0 0 C-2.363121 9.72145712 -2.363121 9.72145712 -5.6875 13.1875 C-8.26965929 15.86030472 -8.26965929 15.86030472 -8.625 19.5 C-7.79067646 24.1722118 -6.38202066 25.69484344 -3 29 C-0.04330247 31.03272955 2.43829802 31.63927984 6 31 C7.69972025 28.69519712 7.69972025 28.69519712 9 26 C10.1875 24.1875 10.1875 24.1875 12 23 C14.71795554 22.75193263 17.25980988 22.86523655 20 23 C21.4604931 26.7729405 20.78737656 29.05525821 19.25 32.625 C18.14987025 35.0305076 17.30821675 36.71526643 15.359375 38.515625 C13.81220123 39.90629645 13.81220123 39.90629645 13.8125 41.9453125 C13.874375 42.66460937 13.93625 43.38390625 14 44.125 C14.2009652 49.22449192 12.86636997 53.30074705 11 58 C8.8125 58.375 8.8125 58.375 6 58 C2.88728266 55.30231164 1.22326014 53.71631236 0.6875 49.59765625 C0.6875 47.37604972 0.7790154 45.209846 1 43 C-0.50240234 42.23816406 -0.50240234 42.23816406 -2.03515625 41.4609375 C-16.89968755 33.81786712 -16.89968755 33.81786712 -21 29 C-21.43668752 21.43074969 -16.81351837 11.72418401 -12 6 C-4.39631336 0 -4.39631336 0 0 0 Z " fill="#F6F6F6" transform="translate(101,118)"/>
<path d="M0 0 C3.84509448 2.70063805 6.76322576 5.18307827 8.71484375 9.57421875 C8.71484375 10.23421875 8.71484375 10.89421875 8.71484375 11.57421875 C11.02484375 11.90421875 13.33484375 12.23421875 15.71484375 12.57421875 C15.71484375 14.55421875 15.71484375 16.53421875 15.71484375 18.57421875 C10.95084916 17.82654958 6.9833959 17.04082549 3.73828125 13.2890625 C2.59880792 11.52261869 1.47627457 9.7451304 0.37109375 7.95703125 C-2.70318601 3.53412876 -7.05063107 1.56526482 -12.28515625 0.57421875 C-26.67403792 -0.39456909 -35.46631668 1.86904804 -46.9375 11.0625 C-47.71222656 11.56136719 -48.48695313 12.06023437 -49.28515625 12.57421875 C-50.27515625 12.24421875 -51.26515625 11.91421875 -52.28515625 11.57421875 C-50.6619595 10.25948928 -49.03654125 8.94750213 -47.41015625 7.63671875 C-46.50523437 6.90582031 -45.6003125 6.17492187 -44.66796875 5.421875 C-42.28515625 3.57421875 -42.28515625 3.57421875 -40.28515625 2.57421875 C-46.55575208 -0.56107917 -56.84845091 1.43201854 -63.28515625 3.57421875 C-67.80097148 5.78977024 -71.90495484 8.17408663 -75.44921875 11.76953125 C-77.28515625 13.57421875 -77.28515625 13.57421875 -79.28515625 13.57421875 C-77.84438579 10.21242101 -76.03765604 7.98265607 -73.28515625 5.57421875 C-72.62515625 5.57421875 -71.96515625 5.57421875 -71.28515625 5.57421875 C-71.28515625 4.91421875 -71.28515625 4.25421875 -71.28515625 3.57421875 C-80.75478317 3.73748818 -89.07159555 4.62665605 -96.19921875 11.390625 C-100.05181549 15.54245256 -100.05181549 15.54245256 -101.171875 20.81640625 C-101.07326172 22.11964844 -101.07326172 22.11964844 -100.97265625 23.44921875 C-100.92578125 26.17578125 -100.92578125 26.17578125 -101.28515625 28.57421875 C-104.22265625 30.82421875 -104.22265625 30.82421875 -107.28515625 32.57421875 C-108.25396215 35.70687354 -108.25396215 35.70687354 -108.28515625 38.57421875 C-108.61515625 38.57421875 -108.94515625 38.57421875 -109.28515625 38.57421875 C-109.65233288 31.10829385 -109.65233288 31.10829385 -107.91015625 28.57421875 C-106.28515625 27.57421875 -106.28515625 27.57421875 -104.28515625 27.57421875 C-104.3315625 27.00574219 -104.37796875 26.43726563 -104.42578125 25.8515625 C-104.70865596 19.80006425 -103.69104859 16.57662313 -100.28515625 11.57421875 C-104.74015625 13.05921875 -104.74015625 13.05921875 -109.28515625 14.57421875 C-109.28515625 12.92421875 -109.28515625 11.27421875 -109.28515625 9.57421875 C-108.27453125 9.14109375 -107.26390625 8.70796875 -106.22265625 8.26171875 C-105.25779297 7.84792969 -105.25779297 7.84792969 -104.2734375 7.42578125 C-102.4866385 6.66051174 -100.69848221 5.89841314 -98.91015625 5.13671875 C-91.53455864 1.99296869 -91.53455864 1.99296869 -84.28515625 -1.42578125 C-81.44721978 -1.41991774 -78.62140805 -1.37138152 -75.78515625 -1.30078125 C-69.58118258 -1.20813914 -64.57555247 -1.60886056 -58.70703125 -3.75390625 C-52.24347567 -5.54702167 -45.04393136 -4.72982359 -38.47265625 -3.80078125 C-34.84920916 -3.32332342 -32.17022751 -3.90814586 -28.640625 -4.9296875 C-18.25250993 -7.1175658 -8.90923445 -5.55875312 0 0 Z " fill="#EEEEEE" transform="translate(385.28515625,243.42578125)"/>
<path d="M0 0 C0.66 0.99 1.32 1.98 2 3 C1.34 3 0.68 3 0 3 C0.33773438 3.64066406 0.67546875 4.28132813 1.0234375 4.94140625 C7.13956893 16.80245882 9.06394251 27.70138349 5.375 40.8125 C3.40515745 46.54739621 0.69828337 51.22221771 -3 56 C-3.70125 56.94875 -4.4025 57.8975 -5.125 58.875 C-6.93655284 60.92809322 -8.73952632 62.46610715 -11 64 C-10.67 64.66 -10.34 65.32 -10 66 C-12.78823655 67.0326802 -13.8677274 67.04509293 -16.75 66.0625 C-17.4925 65.711875 -18.235 65.36125 -19 65 C-18.01 64.505 -18.01 64.505 -17 64 C-16.67 63.01 -16.34 62.02 -16 61 C-15.2575 60.484375 -14.515 59.96875 -13.75 59.4375 C-9.17590204 55.3831859 -6.9133611 49.74008329 -5 44 C-4.35841531 32.328094 -4.73437645 23.14434289 -11 13 C-11 12.01 -11 11.02 -11 10 C-6.65714286 6 -6.65714286 6 -4 6 C-4 5.34 -4 4.68 -4 4 C-3.34 4 -2.68 4 -2 4 C-1.34 2.68 -0.68 1.36 0 0 Z " fill="#F3F3F3" transform="translate(343,268)"/>
<path d="M0 0 C3.74787121 1.04677171 7.51511228 2.01796493 11.28100586 2.99755859 C13.25538412 3.51277881 15.22831648 4.03358542 17.19946289 4.56103516 C23.22658843 6.1636846 29.26125974 7.52128611 35.39160156 8.66796875 C27.31965365 14.04926736 11.60352581 11.70016275 2.43994141 9.98828125 C-5.03630689 8.44591209 -12.39089136 6.42048991 -19.75097656 4.40551758 C-31.82204839 1.28977014 -41.93864411 2.56333116 -53.60839844 6.66796875 C-55.60770556 7.33671046 -57.60750299 8.00399447 -59.60839844 8.66796875 C-56.53744995 5.22433234 -53.5481596 3.43928245 -49.35839844 1.54296875 C-48.28074219 1.04539062 -47.20308594 0.5478125 -46.09277344 0.03515625 C-31.14452283 -5.83018872 -15.16755009 -4.26948519 0 0 Z " fill="#090909" transform="translate(316.6083984375,330.33203125)"/>
<path d="M0 0 C0.33 0 0.66 0 1 0 C1.17015625 0.67546875 1.3403125 1.3509375 1.515625 2.046875 C3.25971238 8.9423225 3.25971238 8.9423225 8 14 C14.05246729 17.02623365 20.73619821 17.19634547 27.375 17.5625 C28.47908203 17.62727539 28.47908203 17.62727539 29.60546875 17.69335938 C31.40348068 17.79843799 33.20171958 17.89962093 35 18 C35 18.33 35 18.66 35 19 C34.40574219 19.04487549 33.81148438 19.08975098 33.19921875 19.13598633 C30.46504887 19.34939403 27.73268018 19.58082418 25 19.8125 C24.06542969 19.88275391 23.13085938 19.95300781 22.16796875 20.02539062 C16.27183228 20.54078717 11.38091808 21.48243404 6 24 C2.04407294 29.07170136 1.28734182 33.66411292 1 40 C0.67 40 0.34 40 0 40 C-0.15855469 39.19175781 -0.31710938 38.38351563 -0.48046875 37.55078125 C-2.21228683 29.09899619 -2.21228683 29.09899619 -8 23 C-13.47298114 20.69739569 -19.02333586 20.35867414 -24.875 19.875 C-25.84953125 19.78863281 -26.8240625 19.70226562 -27.828125 19.61328125 C-30.21826446 19.40238659 -32.60877625 19.19815363 -35 19 C-35 18.67 -35 18.34 -35 18 C-33.88882813 17.96261719 -32.77765625 17.92523438 -31.6328125 17.88671875 C-23.30299902 17.54202389 -15.89721465 16.86605029 -8 14 C-7.2884375 13.90460938 -6.576875 13.80921875 -5.84375 13.7109375 C-3.76497039 13.15464131 -3.76497039 13.15464131 -2.98828125 10.8203125 C-2.76527344 9.93085938 -2.54226562 9.04140625 -2.3125 8.125 C-2.08175781 7.24070313 -1.85101563 6.35640625 -1.61328125 5.4453125 C-1.41089844 4.63835937 -1.20851562 3.83140625 -1 3 C-0.67 2.01 -0.34 1.02 0 0 Z " fill="#F2F2F2" transform="translate(84,190)"/>
<path d="M0 0 C15.18 0 30.36 0 46 0 C46 1.98 46 3.96 46 6 C30.82 6 15.64 6 0 6 C0 4.02 0 2.04 0 0 Z " fill="#0D0F08" transform="translate(173,0)"/>
<path d="M0 0 C11.58276597 0.60961926 19.66253566 5.34843911 29 12 C24.58209308 13.47263564 21.84747987 11.48470911 17.69140625 9.71484375 C15.08732236 8.76761195 15.08732236 8.76761195 12.890625 9.65625 C10.7994495 11.14254003 9.02365369 12.77122176 7.1875 14.5625 C3.41659821 17.9725838 1.04200847 18.89495816 -4 19 C-3.45144652 14.428721 -2.58255197 10.32564205 -1 6 C-1.99 6 -2.98 6 -4 6 C-2.84826645 3.53199953 -1.95216435 1.95216435 0 0 Z " fill="#F0F0F0" transform="translate(122,118)"/>
<path d="M0 0 C0.99 0.33 1.98 0.66 3 1 C2.62337017 4.76629827 2.11501082 8.37621484 1 12 C-1.875 14.3125 -1.875 14.3125 -5 16 C-6.57131331 17.91144515 -7.73585206 19.86067272 -9 22 C-13.00847373 20.62566615 -16.02725496 19.05532129 -19 16 C-19.9375 12.4375 -19.9375 12.4375 -20 9 C-19.34 8.01 -18.68 7.02 -18 6 C-16.15234375 5.91796875 -16.15234375 5.91796875 -13.9375 6.1875 C-8.69889717 6.42446426 -5.95904615 4.38698809 -1.9453125 1.21484375 C-1.30335937 0.81394531 -0.66140625 0.41304688 0 0 Z " fill="#EEEEEE" transform="translate(115,126)"/>
<path d="M0 0 C14.19 0 28.38 0 43 0 C38 6 38 6 35.39453125 6.5859375 C34.54246094 6.51632813 33.69039063 6.44671875 32.8125 6.375 C31.52279297 6.29378906 31.52279297 6.29378906 30.20703125 6.2109375 C29.47871094 6.14132813 28.75039063 6.07171875 28 6 C27.34 6 26.68 6 26 6 C23 6 20 6 17 6 C17 5.34 17 4.68 17 4 C16.34 4.66 15.68 5.32 15 6 C11.375 6.125 11.375 6.125 8 6 C8 5.01 8 4.02 8 3 C7.649375 3.495 7.29875 3.99 6.9375 4.5 C4.05625711 6.73063966 1.52990974 6.19980621 -2 6 C-1.34 4.02 -0.68 2.04 0 0 Z " fill="#101112" transform="translate(255,0)"/>
<path d="M0 0 C3 1 3 1 4.09765625 2.75 C4.41605469 3.4925 4.73445313 4.235 5.0625 5 C5.38347656 5.721875 5.70445312 6.44375 6.03515625 7.1875 C11.08343502 21.90313043 11.21039276 39.69078785 5 54 C4.39865234 55.49853516 4.39865234 55.49853516 3.78515625 57.02734375 C0.03381646 65.47601335 -5.56082991 71.54061274 -12 78 C-12.54269531 78.60714844 -13.08539063 79.21429688 -13.64453125 79.83984375 C-15 81 -15 81 -18 81 C-18 80.34 -18 79.68 -18 79 C-17.030625 78.38125 -16.06125 77.7625 -15.0625 77.125 C-3.90619327 69.45362478 3.10787722 54.93987328 6 42 C6.42120741 38.05202702 6.47614959 34.15541945 6.4375 30.1875 C6.43282715 29.13522217 6.4281543 28.08294434 6.42333984 26.9987793 C6.27189328 19.02320918 5.17130466 12.37270462 2 5 C1.33333333 3.33333333 0.66666667 1.66666667 0 0 Z " fill="#212121" transform="translate(372,256)"/>
<path d="M0 0 C3.4375 1 3.4375 1 5.4375 2.625 C6.89081917 6.07663304 6.36354949 8.42809484 5.4375 12 C1.94625983 14.32749345 0.54527749 14.50299316 -3.5625 14 C-5.9375 12.375 -5.9375 12.375 -7.5625 10 C-8.17225382 6.34147708 -8.00793026 4.69487121 -6 1.5625 C-3.5625 0 -3.5625 0 0 0 Z " fill="#E4E4E4" transform="translate(304.5625,199)"/>
<path d="M0 0 C0.33 0 0.66 0 1 0 C1 1.98 1 3.96 1 6 C1.99 5.67 2.98 5.34 4 5 C3.89300781 5.80824219 3.78601563 6.61648437 3.67578125 7.44921875 C3.55589844 8.51785156 3.43601563 9.58648437 3.3125 10.6875 C3.12107422 12.27111328 3.12107422 12.27111328 2.92578125 13.88671875 C3.01261207 17.52904326 4.06487698 18.98276788 6 22 C6.930516 26.962752 6.78112647 30.80390009 4 35.0625 C0.13620348 37.55786859 -2.43945415 37.76810784 -7 38 C-5.02 37.505 -5.02 37.505 -3 37 C-2.896875 36.38125 -2.79375 35.7625 -2.6875 35.125 C-2 33 -2 33 1 31 C1.46051374 27.00888089 1.30692045 24.61384091 -0.5 21 C-3.81763477 14.36473046 -1.40919524 6.95790148 0 0 Z " fill="#F1F4E3" transform="translate(163,102)"/>
<path d="M0 0 C1.81293089 0.14037521 3.6253443 0.28744889 5.4375 0.4375 C6.95150391 0.55931641 6.95150391 0.55931641 8.49609375 0.68359375 C11 1 11 1 12 2 C12.375 4.375 12.375 4.375 12 7 C10.0625 8.875 10.0625 8.875 7 10 C3.94411633 9.94378809 1.00473866 9.54334054 -2 9 C-2.81498537 13.78803907 -3.0487567 18.22689436 -2.83984375 23.08203125 C-3 25 -3 25 -5 27 C-5.98408323 35.88569272 -4.82316172 45.53051485 -2 54 C-1.87218214 56.67394964 -1.95608129 59.32095857 -2 62 C-9.28525815 51.07211277 -8.61917563 32.99368451 -6.59423828 20.49560547 C-5.67866354 16.23282632 -4.45531286 12.11255822 -3 8 C2.94 7.505 2.94 7.505 9 7 C9.33 5.68 9.66 4.36 10 3 C6.7 2.67 3.4 2.34 0 2 C0 1.34 0 0.68 0 0 Z " fill="#B1D32C" transform="translate(124,204)"/>
<path d="M0 0 C4.77700421 1.9461869 8.13405342 5.1444002 10.3125 9.8125 C10.539375 10.534375 10.76625 11.25625 11 12 C13.31 12.33 15.62 12.66 18 13 C18 14.98 18 16.96 18 19 C13.1121656 18.2328952 9.24191572 17.37940548 5.84765625 13.609375 C4.64480786 11.8292611 3.48426476 10.01957376 2.375 8.1796875 C1.18534031 5.8768864 1.18534031 5.8768864 -1 5 C-0.67 3.35 -0.34 1.7 0 0 Z " fill="#F2F2F2" transform="translate(383,243)"/>
<path d="M0 0 C3 1 3 1 4.1328125 2.890625 C4.46023438 3.66921875 4.78765625 4.4478125 5.125 5.25 C5.45757812 6.01828125 5.79015625 6.7865625 6.1328125 7.578125 C10.24930893 19.07464656 9.54183772 34.2334516 4.55859375 45.23046875 C0.95178687 51.63955666 -3.65939714 56.98307004 -9 62 C-9.99 61.67 -10.98 61.34 -12 61 C-10.7315625 60.071875 -10.7315625 60.071875 -9.4375 59.125 C-1.86493318 52.75187048 2.22690433 44.33310692 5 35 C5.19335938 34.3709375 5.38671875 33.741875 5.5859375 33.09375 C7.72628069 22.27088255 6.04370823 11.20946015 0 2 C0 1.34 0 0.68 0 0 Z " fill="#1C1C1C" transform="translate(343,271)"/>
<path d="M0 0 C0.33 0.99 0.66 1.98 1 3 C0.08541016 3.13921875 0.08541016 3.13921875 -0.84765625 3.28125 C-3.52835321 4.17643737 -4.02005292 5.10652535 -5.4375 7.5 C-7.68500028 10.92674425 -7.68500028 10.92674425 -10.6875 11.625 C-11.450625 11.74875 -12.21375 11.8725 -13 12 C-13.70211894 13.65204456 -14.36971413 15.31923769 -15 17 C-17.125 17.8125 -17.125 17.8125 -19 18 C-18.7215625 18.86625 -18.7215625 18.86625 -18.4375 19.75 C-17.95817621 22.21509379 -18.34273163 23.61740218 -19 26 C-18.67 26.33 -18.34 26.66 -18 27 C-17.82169835 28.93208837 -17.73206583 30.87271372 -17.6875 32.8125 C-17.65011719 33.87082031 -17.61273438 34.92914063 -17.57421875 36.01953125 C-18.08997763 39.62984338 -19.22297454 40.73784711 -22 43 C-22.66 42.67 -23.32 42.34 -24 42 C-22.515 41.505 -22.515 41.505 -21 41 C-19.56054051 36.68162154 -19.55841953 32.51715106 -20 28 C-21.46111016 25.20102057 -21.46111016 25.20102057 -23 23 C-22.04784407 16.18088324 -16.68177658 11.33106488 -11.48364258 7.32495117 C-7.79326387 4.57214933 -4.20496718 1.91134872 0 0 Z " fill="#B9E320" transform="translate(188,96)"/>
<path d="M0 0 C0.66 0 1.32 0 2 0 C7.40968683 11.05457744 10.25006484 20.36269978 10.375 32.6875 C10.38893799 33.57872559 10.40287598 34.46995117 10.41723633 35.38818359 C10.37518885 41.25626471 9.36496634 45.62564527 7 51 C6.34 51 5.68 51 5 51 C5.14002441 50.46342773 5.28004883 49.92685547 5.42431641 49.37402344 C6.82973952 43.6106703 7.38596248 38.17493183 7.375 32.25 C7.37411377 31.37819092 7.37322754 30.50638184 7.37231445 29.6081543 C7.23767252 22.20831585 5.69418213 15.89478867 3 9 C2.40818486 7.23198323 1.82391179 5.46140917 1.25 3.6875 C0.8375 2.470625 0.425 1.25375 0 0 Z " fill="#1F1F1F" transform="translate(356,258)"/>
<path d="M0 0 C4.30414437 3.6892666 6.1558862 8.51706261 7 14 C7.72217946 25.68510041 7.68015558 35.53889966 -0.0625 45 C-1.98152721 47.11754726 -3.56860907 48.37907271 -6 50 C-6.99 50 -7.98 50 -9 50 C-9 49.34 -9 48.68 -9 48 C-8.278125 47.5875 -7.55625 47.175 -6.8125 46.75 C-0.22279343 42.64973814 2.9464907 36.5013579 4.6875 29.0625 C5.42301191 21.85448331 4.85577864 16.41218926 2.5 9.625 C0 2.17905405 0 2.17905405 0 0 Z " fill="#1D1D1D" transform="translate(332,281)"/>
<path d="M0 0 C0.99 0 1.98 0 3 0 C2.835 0.7425 2.67 1.485 2.5 2.25 C1.03432083 13.24259375 1.56813834 24.13999142 7.75390625 33.71484375 C9.43589616 35.88141531 11.19020574 37.94057895 13 40 C13.66 40.99 14.32 41.98 15 43 C13.515 43.495 13.515 43.495 12 44 C11.60167969 43.36191406 11.20335937 42.72382813 10.79296875 42.06640625 C9.99826172 40.82697266 9.99826172 40.82697266 9.1875 39.5625 C8.66542969 38.73878906 8.14335937 37.91507812 7.60546875 37.06640625 C6.09039287 34.72172214 6.09039287 34.72172214 3 34 C2.67 31.69 2.34 29.38 2 27 C1.34 27 0.68 27 0 27 C-0.96099839 17.97347942 -1.8867344 8.96198842 0 0 Z " fill="#BDE329" transform="translate(155,226)"/>
<path d="M0 0 C4.75902638 3.61029587 5.92837989 8.36234635 7 14 C7.95373329 23.56310944 6.6246971 33.47447144 2 42 C1.34 42 0.68 42 0 42 C0.28875 40.98421875 0.5775 39.9684375 0.875 38.921875 C4.75450943 24.76952129 4.67234513 14.01703538 0 0 Z " fill="#383838" transform="translate(390,266)"/>
<path d="M0 0 C3.015625 -0.5859375 3.015625 -0.5859375 6.25 -0.375 C7.32765625 -0.32085938 8.4053125 -0.26671875 9.515625 -0.2109375 C10.33546875 -0.14132812 11.1553125 -0.07171875 12 0 C11.67 1.98 11.34 3.96 11 6 C6.05 6 1.1 6 -4 6 C-2.68 4.02 -1.36 2.04 0 0 Z " fill="#0D1008" transform="translate(83,0)"/>
<path d="M0 0 C2.5 0.1875 2.5 0.1875 5 1 C7 4 7 4 6.75 6.0625 C6 8 6 8 4 10 C1.5 10.3125 1.5 10.3125 -1 10 C-3 7 -3 7 -2.75 4.4375 C-2 2 -2 2 0 0 Z " fill="#101010" transform="translate(302,201)"/>
<path d="M0 0 C2.875 -0.125 2.875 -0.125 6 0 C8 2 8 2 8.25 4.5 C8 7 8 7 6 9 C3.5 9.25 3.5 9.25 1 9 C0.34 8.34 -0.32 7.68 -1 7 C-0.625 3.375 -0.625 3.375 0 0 Z " fill="#D4D4D4" transform="translate(284,222)"/>
<path d="M0 0 C0.66 0 1.32 0 2 0 C2.53906761 10.52679253 1.92179916 17.96726948 -4.4375 26.5 C-7.09904368 29.09662798 -8.3458984 29.79119419 -12 30 C-11.278125 29.34 -10.55625 28.68 -9.8125 28 C-3.61417462 21.81933367 -0.99341695 15.46892104 -0.4375 6.8125 C-0.35371094 5.54019531 -0.26992188 4.26789063 -0.18359375 2.95703125 C-0.12300781 1.98121094 -0.06242187 1.00539063 0 0 Z " fill="#424242" transform="translate(326,298)"/>
<path d="M0 0 C4 1.33333333 8 2.66666667 12 4 C20.90195253 4.57952946 29.03976227 4.91346221 37.21484375 0.875 C39 0 39 0 41 0 C41 0.66 41 1.32 41 2 C31.6766267 7.17965183 20.41504115 8.46575179 10 6 C6.59330073 4.81965068 3.28855799 3.47607509 0 2 C0 1.34 0 0.68 0 0 Z " fill="#B7DC29" transform="translate(173,271)"/>
<path d="M0 0 C0.66 0 1.32 0 2 0 C2 1.32 2 2.64 2 4 C1.01 4.495 1.01 4.495 0 5 C-0.65213292 7.02463255 -0.65213292 7.02463255 -1 9 C-2.32 9.33 -3.64 9.66 -5 10 C-5 10.66 -5 11.32 -5 12 C-8.3 12.33 -11.6 12.66 -15 13 C-11.46306753 9.1827512 -7.6635947 6.95926091 -3.14453125 4.46484375 C-0.70166938 3.11335965 -0.70166938 3.11335965 0 0 Z " fill="#BAE21F" transform="translate(160,166)"/>
<path d="M0 0 C0.66 0 1.32 0 2 0 C-0.80619543 8.23946745 -7.77429796 16.18286531 -15 21 C-15.99 20.67 -16.98 20.34 -18 20 C-17.34773438 19.443125 -16.69546875 18.88625 -16.0234375 18.3125 C-9.60668941 12.70967571 -4.70062061 7.05093092 0 0 Z " fill="#2A2A2A" transform="translate(359,315)"/>
<path d="M0 0 C0.66 0 1.32 0 2 0 C-0.5313218 9.14238033 -7.49442947 16.41893473 -15 22 C-15.66 21.67 -16.32 21.34 -17 21 C-16.27554687 20.32195312 -15.55109375 19.64390625 -14.8046875 18.9453125 C-9.25015171 13.63465779 -4.73019421 8.68698777 -1.12109375 1.80078125 C-0.56615234 0.90939453 -0.56615234 0.90939453 0 0 Z " fill="#2A2A2A" transform="translate(387,313)"/>
<path d="M0 0 C0.33 0 0.66 0 1 0 C1.12117188 1.15757812 1.24234375 2.31515625 1.3671875 3.5078125 C1.53611316 5.04691292 1.70540332 6.58597337 1.875 8.125 C1.95363281 8.88554687 2.03226562 9.64609375 2.11328125 10.4296875 C2.61232654 14.88270702 3.53328796 18.74653509 5 23 C5.22663986 25.71061275 5.0940868 28.27148292 5 31 C-0.96494938 22.05257594 -0.38608679 10.33854637 0 0 Z " fill="#B6DA2A" transform="translate(117,235)"/>
<path d="M0 0 C0 1.98 0 3.96 0 6 C-3.63 6 -7.26 6 -11 6 C-9 2 -9 2 -5.5 0.75 C-2 -0 -2 -0 0 0 Z " fill="#0D1008" transform="translate(111,0)"/>
<path d="M0 0 C2.31 0 4.62 0 7 0 C2.9504058 4.0495942 -4.22533856 4.80984838 -9.79296875 5.19140625 C-11.86296005 5.18811533 -13.93258874 5.10337056 -16 5 C-15.67 4.34 -15.34 3.68 -15 3 C-14.01 3 -13.02 3 -12 3 C-12 2.34 -12 1.68 -12 1 C-8.04 1.33 -4.08 1.66 0 2 C0 1.34 0 0.68 0 0 Z " fill="#B1D721" transform="translate(204,309)"/>
<path d="M0 0 C4.14298667 0.59834725 7.18194377 2.00664285 10.8125 4.0625 C11.78832031 4.61035156 12.76414062 5.15820312 13.76953125 5.72265625 C14.50558594 6.14417969 15.24164063 6.56570312 16 7 C15.625 8.9375 15.625 8.9375 15 11 C14.01 11.495 14.01 11.495 13 12 C12.96003906 11.40703125 12.92007813 10.8140625 12.87890625 10.203125 C11.52983888 6.82146279 9.16586083 6.2452408 5.9375 4.75 C4.83277344 4.22921875 3.72804688 3.7084375 2.58984375 3.171875 C1.73519531 2.78515625 0.88054687 2.3984375 0 2 C0 1.34 0 0.68 0 0 Z " fill="#202020" transform="translate(87,154)"/>
<path d="M0 0 C0.33 0.66 0.66 1.32 1 2 C0.06553465 4.03144641 -0.93224776 6.03533587 -2 8 C-2.66 8 -3.32 8 -4 8 C-4 8.99 -4 9.98 -4 11 C-2.35 10.67 -0.7 10.34 1 10 C1 11.32 1 12.64 1 14 C-1.64 14 -4.28 14 -7 14 C-6.44010697 10.00987629 -5.24330232 7.4744948 -2.9375 4.1875 C-2.38964844 3.39730469 -1.84179688 2.60710937 -1.27734375 1.79296875 C-0.64505859 0.90544922 -0.64505859 0.90544922 0 0 Z " fill="#BFE918" transform="translate(132,191)"/>
<path d="M0 0 C1.32 0.66 2.64 1.32 4 2 C3.60167969 2.50789062 3.20335937 3.01578125 2.79296875 3.5390625 C-0.28566175 7.53903498 -2.91595614 11.36879143 -5 16 C-5.33 16 -5.66 16 -6 16 C-6 14.02 -6 12.04 -6 10 C-6.66 9.67 -7.32 9.34 -8 9 C-7.67 8.34 -7.34 7.68 -7 7 C-4.4375 6.375 -4.4375 6.375 -2 6 C-1.855625 5.195625 -1.71125 4.39125 -1.5625 3.5625 C-1 1 -1 1 0 0 Z " fill="#B7DF1F" transform="translate(164,210)"/>
<path d="M0 0 C1.65 0 3.3 0 5 0 C5.625 1.875 5.625 1.875 6 4 C4 6 4 6 1.1796875 6.1953125 C0.08914062 6.17210937 -1.00140625 6.14890625 -2.125 6.125 C-3.22070312 6.10695312 -4.31640625 6.08890625 -5.4453125 6.0703125 C-6.70988281 6.03550781 -6.70988281 6.03550781 -8 6 C-8 5.67 -8 5.34 -8 5 C-5.36 5 -2.72 5 0 5 C0 4.34 0 3.68 0 3 C-3.3 3 -6.6 3 -10 3 C-10 2.67 -10 2.34 -10 2 C-8.71802734 2.01740234 -8.71802734 2.01740234 -7.41015625 2.03515625 C-5.75306641 2.04869141 -5.75306641 2.04869141 -4.0625 2.0625 C-2.40927734 2.07990234 -2.40927734 2.07990234 -0.72265625 2.09765625 C1.91447634 2.31262571 1.91447634 2.31262571 3 1 C2.01 0.67 1.02 0.34 0 0 Z " fill="#313E1B" transform="translate(129,206)"/>
<path d="M0 0 C1.32 0.33 2.64 0.66 4 1 C3.814375 1.969375 3.62875 2.93875 3.4375 3.9375 C3.293125 4.948125 3.14875 5.95875 3 7 C3.33 7.33 3.66 7.66 4 8 C4.17830165 9.93208837 4.26793417 11.87271372 4.3125 13.8125 C4.34988281 14.87082031 4.38726562 15.92914063 4.42578125 17.01953125 C3.91002237 20.62984338 2.77702546 21.73784711 0 24 C-0.66 23.67 -1.32 23.34 -2 23 C-1.01 22.67 -0.02 22.34 1 22 C2.43945949 17.68162154 2.44158047 13.51715106 2 9 C0.53888984 6.20102057 0.53888984 6.20102057 -1 4 C-0.6875 1.6875 -0.6875 1.6875 0 0 Z " fill="#C4EA31" transform="translate(166,115)"/>
<path d="M0 0 C0.33 0 0.66 0 1 0 C1 1.98 1 3.96 1 6 C1.99 5.67 2.98 5.34 4 5 C3.53199289 9.05606165 3.12046792 12.46588679 1 16 C0.01 15.34 -0.98 14.68 -2 14 C-1.34 9.38 -0.68 4.76 0 0 Z " fill="#E4E4DE" transform="translate(163,102)"/>
<path d="M0 0 C0.66 0 1.32 0 2 0 C2 0.66 2 1.32 2 2 C2.66 2 3.32 2 4 2 C3.55005243 3.79379098 3.08975857 5.58498928 2.625 7.375 C2.36976562 8.37273437 2.11453125 9.37046875 1.8515625 10.3984375 C1 13 1 13 -1 15 C-3.125 15.625 -3.125 15.625 -5 16 C-4.72285156 15.43152344 -4.44570312 14.86304688 -4.16015625 14.27734375 C-1.89063217 9.43946147 -0.45344816 5.32801588 0 0 Z " fill="#2A2A2A" transform="translate(121,141)"/>
<path d="M0 0 C0.66 1.32 1.32 2.64 2 4 C1.2575 4.53625 0.515 5.0725 -0.25 5.625 C-3.17674961 8.15264739 -4.98621339 10.71827368 -7 14 C-8.38495566 11.23008867 -7.64642852 9.87953208 -6.8125 6.9375 C-6.57144531 6.03902344 -6.33039063 5.14054687 -6.08203125 4.21484375 C-5 2 -5 2 -2.94921875 1.25390625 C-1.98435547 1.12822266 -1.98435547 1.12822266 -1 1 C-0.67 0.67 -0.34 0.34 0 0 Z " fill="#101707" transform="translate(173,102)"/>
<path d="M0 0 C0.66 0.33 1.32 0.66 2 1 C1.34 1.66 0.68 2.32 0 3 C0.33 3.66 0.66 4.32 1 5 C1.33333333 7.33333333 1.66666667 9.66666667 2 12 C2.33 12.66 2.66 13.32 3 14 C2.01 14.33 1.02 14.66 0 15 C-2.45622327 12.44143409 -2.99007552 11.09262844 -3.375 7.5 C-2.99007552 3.90737156 -2.45622327 2.55856591 0 0 Z " fill="#141414" transform="translate(95,130)"/>
<path d="M0 0 C0.33 0 0.66 0 1 0 C1.96326442 9.89957289 2.63211144 18.49905312 -1 28 C-1.66 27.67 -2.32 27.34 -3 27 C-2.690625 25.88625 -2.38125 24.7725 -2.0625 23.625 C-0.30952896 15.90446795 -0.32311544 7.88231611 0 0 Z " fill="#505050" transform="translate(379,280)"/>
<path d="M0 0 C-0.67415387 5.2584002 -2.24265549 10.02638346 -4 15 C-4.99 14.67 -5.98 14.34 -7 14 C-6.34 14 -5.68 14 -5 14 C-5 12.7625 -5 11.525 -5 10.25 C-5 7.5 -5 4.75 -5 2 C-2 0 -2 0 0 0 Z " fill="#2F2F2F" transform="translate(121,124)"/>
<path d="M0 0 C1.98 0 3.96 0 6 0 C5.34 1.98 4.68 3.96 4 6 C1.69 6 -0.62 6 -3 6 C-2.01 4.02 -1.02 2.04 0 0 Z " fill="#111213" transform="translate(240,0)"/>
<path d="M0 0 C1.32 0 2.64 0 4 0 C4.33 1.98 4.66 3.96 5 6 C3.34385343 6.38218767 1.67542976 6.71395102 0 7 C-1 6 -1 6 -1.125 3.5 C-1 1 -1 1 0 0 Z " fill="#EBEBEB" transform="translate(142,106)"/>
<path d="M0 0 C0.33 0 0.66 0 1 0 C2.70159453 15.74487472 2.70159453 15.74487472 -1 23 C-1.66 23 -2.32 23 -3 23 C-2.690625 21.80375 -2.38125 20.6075 -2.0625 19.375 C-0.62245192 12.99180815 -0.35230768 6.51769209 0 0 Z " fill="#4D4D4D" transform="translate(364,286)"/>
<path d="M0 0 C10.08499096 8.14556962 10.08499096 8.14556962 13 13 C12.67 13.99 12.34 14.98 12 16 C11.22914063 15.08476562 10.45828125 14.16953125 9.6640625 13.2265625 C8.6510892 12.02600156 7.63806576 10.82548292 6.625 9.625 C5.86316406 8.72007812 5.86316406 8.72007812 5.0859375 7.796875 C4.59609375 7.21679688 4.10625 6.63671875 3.6015625 6.0390625 C3.15119629 5.50490723 2.70083008 4.97075195 2.23681641 4.42041016 C1.20600388 3.23658322 0.10995961 2.10995961 -1 1 C-0.67 0.67 -0.34 0.34 0 0 Z " fill="#212121" transform="translate(311,276)"/>
<path d="M0 0 C-3.465 2.97 -3.465 2.97 -7 6 C-11 4 -11 4 -12 1 C-10.37681021 0.63762737 -8.7513642 0.28534843 -7.125 -0.0625 C-6.22007813 -0.25972656 -5.31515625 -0.45695313 -4.3828125 -0.66015625 C-2 -1 -2 -1 0 0 Z " fill="#181818" transform="translate(111,136)"/>
<path d="M0 0 C0.66 0 1.32 0 2 0 C0.5407024 4.51055622 -1.69193513 7.61500339 -5 11 C-7.8125 11.875 -7.8125 11.875 -10 12 C-9.278125 11.319375 -8.55625 10.63875 -7.8125 9.9375 C-5.69082759 7.83993751 -3.99424049 5.65004857 -2.3125 3.1875 C-1.549375 2.135625 -0.78625 1.08375 0 0 Z " fill="#282828" transform="translate(324,316)"/>
<path d="M0 0 C0.66 0 1.32 0 2 0 C1.6083965 5.95507399 0.62875405 10.62819824 -2 16 C-2.66 16 -3.32 16 -4 16 C-2.68 10.72 -1.36 5.44 0 0 Z " fill="#222222" transform="translate(394,292)"/>
<path d="M0 0 C0.33 0 0.66 0 1 0 C1.33 2.31 1.66 4.62 2 7 C1.030625 7.53625 0.06125 8.0725 -0.9375 8.625 C-4.27535611 10.72005826 -4.27535611 10.72005826 -4.875 14.25 C-4.91625 15.1575 -4.9575 16.065 -5 17 C-5.33 17 -5.66 17 -6 17 C-6.36717663 9.5340751 -6.36717663 9.5340751 -4.625 7 C-3 6 -3 6 -1 6 C-0.67 4.02 -0.34 2.04 0 0 Z " fill="#CECECE" transform="translate(282,265)"/>
<path d="M0 0 C0.66 0.66 1.32 1.32 2 2 C0.23871656 3.36656457 -1.53436088 4.71794085 -3.3125 6.0625 C-4.29863281 6.81660156 -5.28476562 7.57070312 -6.30078125 8.34765625 C-7.19152344 8.89292969 -8.08226562 9.43820313 -9 10 C-9.99 9.67 -10.98 9.34 -12 9 C-10.37680325 7.68527053 -8.751385 6.37328338 -7.125 5.0625 C-6.22007812 4.33160156 -5.31515625 3.60070312 -4.3828125 2.84765625 C-2 1 -2 1 0 0 Z " fill="#D9D9D9" transform="translate(345,246)"/>
<path d="M0 0 C5.08938811 1.59043379 8.87456643 4.7446951 13 8 C12.01 8.66 11.02 9.32 10 10 C8.70450101 8.90033225 7.41373929 7.79508199 6.125 6.6875 C5.40570313 6.07261719 4.68640625 5.45773438 3.9453125 4.82421875 C2 3 2 3 0 0 Z " fill="#0F0F0F" transform="translate(76,145)"/>
<path d="M0 0 C0.66 0 1.32 0 2 0 C3.32 2.31 4.64 4.62 6 7 C5.34 7.66 4.68 8.32 4 9 C-0.875 5.375 -0.875 5.375 -2 2 C-1.34 1.34 -0.68 0.68 0 0 Z " fill="#E3E3E3" transform="translate(312,272)"/>
<path d="M0 0 C1.98 0.99 1.98 0.99 4 2 C4 3.32 4 4.64 4 6 C4.99 6 5.98 6 7 6 C7.33 8.31 7.66 10.62 8 13 C5.27324841 10.59310197 3.88033404 8.07528977 2.3125 4.8125 C1.65701172 3.46091797 1.65701172 3.46091797 0.98828125 2.08203125 C0.66214844 1.39496094 0.33601563 0.70789063 0 0 Z " fill="#B4DA24" transform="translate(124,273)"/>
<path d="M0 0 C3 1 3 1 4.203125 2.890625 C7.05556985 9.31926936 7.05556985 9.31926936 6.75 13.0625 C6.5025 13.701875 6.255 14.34125 6 15 C5.67 15 5.34 15 5 15 C3.33333333 10 1.66666667 5 0 0 Z " fill="#383838" transform="translate(343,271)"/>
<path d="M0 0 C1.65 0 3.3 0 5 0 C4.01 1.98 3.02 3.96 2 6 C0.35 6 -1.3 6 -3 6 C-2.01 4.02 -1.02 2.04 0 0 Z " fill="#101112" transform="translate(233,0)"/>
<path d="M0 0 C0.66 0 1.32 0 2 0 C2 0.66 2 1.32 2 2 C2.66 2 3.32 2 4 2 C4 2.66 4 3.32 4 4 C4.61875 4.0825 5.2375 4.165 5.875 4.25 C8 5 8 5 9.25 6.875 C10 9 10 9 10 12 C8.51476358 10.56877218 7.03699538 9.12979111 5.5625 7.6875 C4.73878906 6.88699219 3.91507813 6.08648437 3.06640625 5.26171875 C1 3 1 3 0 0 Z " fill="#B5D92E" transform="translate(132,286)"/>
<path d="M0 0 C0.66 0.99 1.32 1.98 2 3 C0.71372289 4.17260611 -0.57919783 5.3379283 -1.875 6.5 C-2.59429687 7.1496875 -3.31359375 7.799375 -4.0546875 8.46875 C-6 10 -6 10 -8 10 C-6.55922954 6.63820226 -4.75249979 4.40843732 -2 2 C-1.34 2 -0.68 2 0 2 C0 1.34 0 0.68 0 0 Z " fill="#D4D4D4" transform="translate(314,247)"/>
<path d="M0 0 C1.65 0 3.3 0 5 0 C5 0.99 5 1.98 5 3 C5.99 3.33 6.98 3.66 8 4 C8 4.66 8 5.32 8 6 C7.34 6 6.68 6 6 6 C6 5.34 6 4.68 6 4 C3.03 3.67 0.06 3.34 -3 3 C-2.01 2.67 -1.02 2.34 0 2 C0 1.34 0 0.68 0 0 Z " fill="#020202" transform="translate(117,137)"/>
<path d="M0 0 C1.65 0 3.3 0 5 0 C4.01 1.98 3.02 3.96 2 6 C0.68 6 -0.64 6 -2 6 C-1.34 4.02 -0.68 2.04 0 0 Z " fill="#111213" transform="translate(248,0)"/>
<path d="M0 0 C0.66 0 1.32 0 2 0 C2.625 3.375 2.625 3.375 3 7 C2.34 7.66 1.68 8.32 1 9 C0.30251417 10.31747324 -0.36959957 11.64914193 -1 13 C-1.07654536 8.48382401 -1.10228696 4.40914783 0 0 Z " fill="#A7CA20" transform="translate(118,222)"/>
<path d="M0 0 C0.33 1.32 0.66 2.64 1 4 C0.2575 4.2475 -0.485 4.495 -1.25 4.75 C-4.20124062 6.09147301 -5.84814974 7.60905526 -8 10 C-8.66 9.67 -9.32 9.34 -10 9 C-8.71142987 7.68445979 -7.41904109 6.37265903 -6.125 5.0625 C-5.04605469 3.96615234 -5.04605469 3.96615234 -3.9453125 2.84765625 C-2 1 -2 1 0 0 Z " fill="#B6D926" transform="translate(144,179)"/>
<path d="M0 0 C0.66 0.99 1.32 1.98 2 3 C1.67 3.99 1.34 4.98 1 6 C-2.0625 7.1875 -2.0625 7.1875 -5 8 C-3.8141763 4.62496331 -2.72426311 2.35277269 0 0 Z " fill="#AED617" transform="translate(172,107)"/>
<path d="M0 0 C0.66 0.33 1.32 0.66 2 1 C1.2575 1.5775 0.515 2.155 -0.25 2.75 C-2.99198619 4.90659314 -2.99198619 4.90659314 -5.1875 7.25 C-7 9 -7 9 -9 9 C-7.48328036 4.44984107 -3.83108947 2.49942736 0 0 Z " fill="#172501" transform="translate(175,206)"/>
<path d="M0 0 C7.42857143 -0.28571429 7.42857143 -0.28571429 11 2 C7.52674819 3.1577506 4.63932552 3.06866652 1 3 C0.67 2.01 0.34 1.02 0 0 Z " fill="#292929" transform="translate(341,338)"/>
<path d="M0 0 C2.87771974 2.73221706 4.51230375 5.28075937 6 9 C5.6875 11.875 5.6875 11.875 5 14 C3.38274466 10.99049877 2.32417377 8.02896392 1.375 4.75 C0.98441406 3.41195313 0.98441406 3.41195313 0.5859375 2.046875 C0.39257812 1.37140625 0.19921875 0.6959375 0 0 Z " fill="#323232" transform="translate(332,281)"/>
<path d="M0 0 C0.66 0.33 1.32 0.66 2 1 C-0.97 3.97 -3.94 6.94 -7 10 C-7 5.69032084 -4.83274712 4.10253255 -2 1 C-1.34 0.67 -0.68 0.34 0 0 Z " fill="#0F1D00" transform="translate(204,132)"/>
<path d="M0 0 C0 1.98 0 3.96 0 6 C-1.65 5.67 -3.3 5.34 -5 5 C-5 4.01 -5 3.02 -5 2 C-1.125 0 -1.125 0 0 0 Z " fill="#C9C9C9" transform="translate(224,310)"/>
<path d="M0 0 C-4.75 4.875 -4.75 4.875 -7 6 C-6.625 3.0625 -6.625 3.0625 -6 0 C-3.50907189 -1.24546405 -2.58919267 -0.7767578 0 0 Z " fill="#0E1702" transform="translate(145,178)"/>
<path d="M0 0 C0.99 0.33 1.98 0.66 3 1 C1.90398831 2.00893131 0.79786082 3.00688225 -0.3125 4 C-1.23482422 4.8353125 -1.23482422 4.8353125 -2.17578125 5.6875 C-4 7 -4 7 -7 7 C-7 6.34 -7 5.68 -7 5 C-5.35666496 3.96210419 -3.68756133 2.96432076 -2 2 C-1.34 1.34 -0.68 0.68 0 0 Z " fill="#252525" transform="translate(330,324)"/>
<path d="M0 0 C0.99 0.495 0.99 0.495 2 1 C2.6328125 3.06640625 2.6328125 3.06640625 3.125 5.5625 C3.29257813 6.38878906 3.46015625 7.21507812 3.6328125 8.06640625 C3.75398437 8.70449219 3.87515625 9.34257812 4 10 C2.68 10 1.36 10 0 10 C0 6.7 0 3.4 0 0 Z " fill="#B5DB20" transform="translate(155,243)"/>
<path d="M0 0 C0.66 0 1.32 0 2 0 C2 2.31 2 4.62 2 7 C1.01 7.33 0.02 7.66 -1 8 C-1.04241723 5.66705225 -1.04092937 3.33297433 -1 1 C-0.67 0.67 -0.34 0.34 0 0 Z " fill="#FCFDFB" transform="translate(165,100)"/>
<path d="M0 0 C0.99 0.33 1.98 0.66 3 1 C0.36 3.64 -2.28 6.28 -5 9 C-5.66 8.67 -6.32 8.34 -7 8 C-4.69 5.36 -2.38 2.72 0 0 Z " fill="#3C3C3C" transform="translate(398,316)"/>
<path d="M0 0 C1.98 0.495 1.98 0.495 4 1 C3.67 2.32 3.34 3.64 3 5 C1.68 4.67 0.36 4.34 -1 4 C-0.67 2.68 -0.34 1.36 0 0 Z " fill="#060606" transform="translate(286,224)"/>
<path d="M0 0 C-0.61875 0.0825 -1.2375 0.165 -1.875 0.25 C-4.18437567 0.81258459 -4.18437567 0.81258459 -5.25 3.0625 C-5.4975 3.701875 -5.745 4.34125 -6 5 C-6.66 5 -7.32 5 -8 5 C-8 6.65 -8 8.3 -8 10 C-8.33 10 -8.66 10 -9 10 C-9.32523926 6.42236811 -9.42956587 4.60457419 -7.3125 1.625 C-4.61209763 -0.27258004 -3.22939919 -0.35882213 0 0 Z " fill="#CECECE" transform="translate(306,199)"/>
<path d="M0 0 C0.33 0.99 0.66 1.98 1 3 C-2 5 -2 5 -4.6875 4.625 C-5.450625 4.41875 -6.21375 4.2125 -7 4 C-2.25 0 -2.25 0 0 0 Z " fill="#161616" transform="translate(396,328)"/>
<path d="M0 0 C1.32 0.33 2.64 0.66 4 1 C2.87926138 1.83905565 1.75325453 2.67107831 0.625 3.5 C-0.00148437 3.9640625 -0.62796875 4.428125 -1.2734375 4.90625 C-3 6 -3 6 -5 6 C-5 5.34 -5 4.68 -5 4 C-4.34 4 -3.68 4 -3 4 C-3 3.34 -3 2.68 -3 2 C-2.01 2 -1.02 2 0 2 C0 1.34 0 0.68 0 0 Z " fill="#B5DB29" transform="translate(224,299)"/>
<path d="M0 0 C1.65 0 3.3 0 5 0 C2.11912454 2.40072955 -0.56404834 4.47291037 -4 6 C-4.33 4.68 -4.66 3.36 -5 2 C-3.68 2.33 -2.36 2.66 -1 3 C-0.67 2.01 -0.34 1.02 0 0 Z " fill="#B8DE28" transform="translate(174,204)"/>
<path d="M0 0 C0 0.33 0 0.66 0 1 C-1.093125 1.28875 -2.18625 1.5775 -3.3125 1.875 C-7.04013845 2.81893204 -7.04013845 2.81893204 -10 5 C-10 2 -10 2 -8.9375 0.25 C-5.90310914 -1.70767152 -3.39923923 -0.70550248 0 0 Z " fill="#2F2F2F" transform="translate(119,140)"/>
<path d="M0 0 C2.97 0.495 2.97 0.495 6 1 C4.58480285 3.0343459 3.45017877 3.90410393 1.01953125 4.421875 C-0.98176954 4.66273952 -2.9909944 4.83532741 -5 5 C-3.68 4.67 -2.36 4.34 -1 4 C-0.67 2.68 -0.34 1.36 0 0 Z " fill="#EFF7C8" transform="translate(161,135)"/>
<path d="M0 0 C-0.33 1.65 -0.66 3.3 -1 5 C-2.32 5.33 -3.64 5.66 -5 6 C-4.625 3.5625 -4.625 3.5625 -4 1 C-2 0 -2 0 0 0 Z " fill="#C0EC17" transform="translate(193,95)"/>
<path d="M0 0 C0.391875 0.474375 0.78375 0.94875 1.1875 1.4375 C3.40808374 3.35179633 5.13375709 3.61266988 8 4 C7.67 4.66 7.34 5.32 7 6 C4.625 6.125 4.625 6.125 2 6 C1.34 5.34 0.68 4.68 0 4 C0 2.68 0 1.36 0 0 Z " fill="#ECECEC" transform="translate(283,225)"/>
<path d="M0 0 C0.33 0.66 0.66 1.32 1 2 C0.06553465 4.03144641 -0.93224776 6.03533587 -2 8 C-2.66 8 -3.32 8 -4 8 C-4 8.66 -4 9.32 -4 10 C-4.66 9.67 -5.32 9.34 -6 9 C-4.02 6.03 -2.04 3.06 0 0 Z " fill="#B2D729" transform="translate(132,191)"/>
<path d="M0 0 C0.66 0.33 1.32 0.66 2 1 C0.02 2.98 -1.96 4.96 -4 7 C-4.99 6.67 -5.98 6.34 -7 6 C-4.69 4.02 -2.38 2.04 0 0 Z " fill="#101010" transform="translate(338,326)"/>
<path d="M0 0 C0.99 0.33 1.98 0.66 3 1 C1.35 2.98 -0.3 4.96 -2 7 C-2.33 6.01 -2.66 5.02 -3 4 C-1.5625 1.8125 -1.5625 1.8125 0 0 Z " fill="#1B2801" transform="translate(221,260)"/>
<path d="M0 0 C0 3.10551666 -0.5393715 4.35261084 -2 7 C-2.66 7 -3.32 7 -4 7 C-4.33 5.68 -4.66 4.36 -5 3 C-3.35 2.01 -1.7 1.02 0 0 Z " fill="#090909" transform="translate(119,155)"/>
<path d="M0 0 C0.66 0 1.32 0 2 0 C0.87548273 2.9719385 -0.22293791 5.33440687 -2 8 C-2.66 8 -3.32 8 -4 8 C-2.87548273 5.0280615 -1.77706209 2.66559313 0 0 Z " fill="#313131" transform="translate(359,315)"/>
<path d="M0 0 C2.31 1.98 4.62 3.96 7 6 C6.01 6.66 5.02 7.32 4 8 C0 2.25 0 2.25 0 0 Z " fill="#C1E72B" transform="translate(163,262)"/>
<path d="M0 0 C0.75 1.75 0.75 1.75 1 4 C-0.9375 6.25 -0.9375 6.25 -3 8 C-3.33 7.01 -3.66 6.02 -4 5 C-2.68 4.34 -1.36 3.68 0 3 C0 2.01 0 1.02 0 0 Z " fill="#C8C8C8" transform="translate(310,205)"/>
<path d="M0 0 C1.98 0 3.96 0 6 0 C5.67 0.99 5.34 1.98 5 3 C3.02 3 1.04 3 -1 3 C-0.67 2.01 -0.34 1.02 0 0 Z " fill="#FBFDF7" transform="translate(155,136)"/>
</svg>
