<?xml version="1.0" encoding="UTF-8"?>
<svg version="1.1" xmlns="http://www.w3.org/2000/svg" width="385" height="343">
<path d="M0 0 C127.05 0 254.1 0 385 0 C385 113.19 385 226.38 385 343 C257.95 343 130.9 343 0 343 C0 229.81 0 116.62 0 0 Z " fill="#FE394A" transform="translate(0,0)"/>
<path d="M0 0 C3.18491877 0.68831578 4.7946946 2.2235041 7.1328125 4.4609375 C8.87109375 7.203125 8.87109375 7.203125 10.4453125 10.3359375 C11.0434375 11.49480469 11.6415625 12.65367188 12.2578125 13.84765625 C12.56589844 14.44755371 12.87398437 15.04745117 13.19140625 15.66552734 C14.69775175 18.53836574 16.32344709 21.33960205 17.9453125 24.1484375 C21.04906446 29.53176841 24.07101655 34.95629697 27.0703125 40.3984375 C30.68417629 46.95153985 34.42942773 53.40642603 38.35327148 59.77905273 C42.39084784 66.37934667 42.99636035 71.82078024 42.1328125 79.4609375 C41.00830078 82.32910156 41.00830078 82.32910156 39.515625 85.1640625 C38.9693042 86.2048999 38.4229834 87.2457373 37.86010742 88.31811523 C35.18278311 93.189521 32.408261 97.99407423 29.5703125 102.7734375 C24.84792366 110.79448011 20.19060282 118.84521599 15.6328125 126.9609375 C10.66073424 135.80682255 5.57308875 144.57898292 0.43798828 153.33105469 C-3.79853072 160.57387049 -7.91497497 167.87746926 -11.9921875 175.2109375 C-16.39784683 183.10846696 -20.83884601 190.98178722 -25.4296875 198.7734375 C-25.90615723 199.5974707 -26.38262695 200.42150391 -26.87353516 201.27050781 C-30.57639579 207.48541228 -34.2002154 211.28104009 -41.18647766 213.82200623 C-47.2970658 215.27842863 -53.71663163 214.91052179 -59.96875 214.89453125 C-61.53478216 214.89909877 -63.10081231 214.90440603 -64.6668396 214.91041565 C-67.93650499 214.91931562 -71.20592568 214.9169575 -74.47558594 214.90698242 C-78.65642298 214.89546721 -82.83641857 214.91575829 -87.01714516 214.94489956 C-90.24632077 214.96327595 -93.47529494 214.9629668 -96.70450974 214.95726204 C-98.24582479 214.95710916 -99.78715377 214.96312617 -101.32841873 214.97555351 C-103.48461591 214.99049886 -105.63926028 214.97976499 -107.79541016 214.96264648 C-109.63119125 214.96239723 -109.63119125 214.96239723 -111.50405884 214.96214294 C-115.55139375 214.35897057 -117.69803179 213.0077575 -120.8671875 210.4609375 C-123.4324439 206.6130529 -123.40156708 205.05112108 -122.8671875 200.4609375 C-121.39663229 197.00659805 -119.49957931 193.8544886 -117.5546875 190.6484375 C-116.74741211 189.27715698 -116.74741211 189.27715698 -115.92382812 187.87817383 C-111.87638816 181.03480495 -107.73936053 174.23901357 -103.5222168 167.4987793 C-101.06488428 163.54914337 -98.85963663 159.56399987 -96.81933594 155.3840332 C-95.31735185 152.35041047 -93.65961598 149.40556197 -91.9921875 146.4609375 C-91.61489502 145.79215576 -91.23760254 145.12337402 -90.84887695 144.43432617 C-86.71224966 137.13453989 -82.46753868 129.89766578 -78.23071289 122.65576172 C-73.93171402 115.30265004 -69.68460174 107.92188219 -65.46850586 100.52099609 C-61.54249804 93.63260765 -57.58402388 86.76338395 -53.6171875 79.8984375 C-48.22141045 70.55607879 -42.84571266 61.20255911 -37.4921875 51.8359375 C-37.15082764 51.23884979 -36.80946777 50.64176208 -36.45776367 50.02658081 C-33.00087192 43.97815547 -29.55515003 37.92444648 -26.1640625 31.83886719 C-22.36914026 25.03137141 -18.46322793 18.2922667 -14.4921875 11.5859375 C-13.97946289 10.71001953 -13.46673828 9.83410156 -12.93847656 8.93164062 C-12.4534668 8.11888672 -11.96845703 7.30613281 -11.46875 6.46875 C-11.03900879 5.74316895 -10.60926758 5.01758789 -10.16650391 4.27001953 C-7.37758535 0.38691421 -4.52413852 0.19515892 0 0 Z " fill="#FEFDFD" transform="translate(185.8671875,60.5390625)"/>
<path d="M0 0 C4.29086939 1.40767652 5.61756851 4.19025698 7.8125 8 C8.19011475 8.64807617 8.56772949 9.29615234 8.95678711 9.96386719 C10.31560574 12.30300492 11.65766632 14.6513653 13 17 C14.1190274 18.94314866 15.23886814 20.88582908 16.359375 22.828125 C18.23205986 26.07461449 20.10368601 29.32167641 21.97094727 32.57128906 C27.49187755 42.16655145 33.12598102 51.69222322 38.80883789 61.19238281 C39.44426514 62.25811523 40.07969238 63.32384766 40.734375 64.421875 C41.29350586 65.35612305 41.85263672 66.29037109 42.42871094 67.25292969 C47.79823531 76.64042009 47.79823531 76.64042009 47 82 C44.7846682 85.48123569 42.85896657 87.5726767 39 89 C36.21607097 89.20596943 33.53102552 89.30402482 30.74658203 89.30639648 C29.91682861 89.31472 29.0870752 89.32304352 28.23217773 89.33161926 C25.49067485 89.3557039 22.74940994 89.36448929 20.0078125 89.37109375 C18.09976124 89.38006094 16.1917107 89.38918281 14.28366089 89.39845276 C10.2839792 89.41494091 6.28438121 89.42264261 2.28466797 89.42553711 C-2.83570425 89.43092206 -7.95528801 89.46860746 -13.07543755 89.51428127 C-17.01660014 89.54405055 -20.95757279 89.55126063 -24.89883804 89.55226326 C-26.78627256 89.55646548 -28.67370765 89.56889988 -30.56103134 89.58978081 C-33.20387216 89.6166941 -35.84488423 89.61187066 -38.48779297 89.59936523 C-39.26410065 89.61419952 -40.04040833 89.62903381 -40.84024048 89.64431763 C-46.53263829 89.5677721 -49.01710566 88.07269307 -53 84 C-54.40276031 81.19447938 -54.21470141 79.11495762 -54 76 C-52.95776367 73.46484375 -52.95776367 73.46484375 -51.48046875 70.9375 C-50.93052246 69.98359375 -50.38057617 69.0296875 -49.81396484 68.046875 C-49.21535645 67.04140625 -48.61674805 66.0359375 -48 65 C-47.40010254 63.97390625 -46.80020508 62.9478125 -46.18212891 61.890625 C-44.24041629 58.58472447 -42.27868307 55.29139945 -40.3125 52 C-38.88920091 49.61022068 -37.46771865 47.21936489 -36.046875 44.828125 C-35.69798721 44.24113831 -35.34909943 43.65415161 -34.98963928 43.04937744 C-31.97528314 37.97164048 -29.01006585 32.86670076 -26.0625 27.75 C-24.7842724 25.54051598 -23.50524991 23.33149383 -22.22607422 21.12255859 C-21.3968222 19.68697177 -20.57039965 18.24974742 -19.74658203 16.81103516 C-18.54870306 14.72263083 -17.33834898 12.64194406 -16.125 10.5625 C-15.77961182 9.9530957 -15.43422363 9.34369141 -15.07836914 8.71582031 C-11.21377919 2.15284992 -7.76699512 -0.84730856 0 0 Z " fill="#FDFDFD" transform="translate(262,186)"/>
<path d="M0 0 C1.28317892 3.84953676 1.06643637 6.94738135 1 11 C-1.07553648 11.5534764 -2.84365964 12 -5 12 C-4.773125 13.27875 -4.54625 14.5575 -4.3125 15.875 C-4.18488281 16.59429687 -4.05726563 17.31359375 -3.92578125 18.0546875 C-3.14946343 20.17923143 -3.14946343 20.17923143 -0.95458984 21.10441589 C2.78919697 22.2392184 6.32560039 22.28729141 10.19921875 22.2746582 C11.41721664 22.2823246 11.41721664 22.2823246 12.65982056 22.29014587 C15.3357893 22.30401165 18.01149967 22.30308762 20.6875 22.30078125 C22.5516774 22.30466935 24.41585392 22.30900426 26.2800293 22.31376648 C30.18378575 22.32122184 34.08745175 22.32094201 37.99121094 22.31567383 C42.9915123 22.3098749 47.99144377 22.32682371 52.99168396 22.3500185 C56.84015057 22.36475451 60.688528 22.36562781 64.53701782 22.36250877 C66.38059218 22.36302188 68.22417154 22.36825764 70.06771851 22.37832069 C72.64565048 22.39066758 75.2228607 22.38390453 77.80078125 22.37231445 C78.56041168 22.37995819 79.32004211 22.38760193 80.10269165 22.39547729 C84.5464235 22.35135482 87.51463467 21.84179448 91 19 C91.60393692 16.26622386 91.60393692 16.26622386 91.3125 13.3125 C91.24482422 11.82169922 91.24482422 11.82169922 91.17578125 10.30078125 C91.11777344 9.54152344 91.05976563 8.78226562 91 8 C93.01841218 10.48955349 93.95540149 11.70055289 94.4375 14.9375 C93.89224857 18.75425998 92.70545085 20.29454915 90 23 C86.22966039 25.602399 82.15486653 25.3026417 77.74658203 25.30639648 C76.91682861 25.31472 76.0870752 25.32304352 75.23217773 25.33161926 C72.49067485 25.3557039 69.74940994 25.36448929 67.0078125 25.37109375 C65.09976124 25.38006094 63.1917107 25.38918281 61.28366089 25.39845276 C57.2839792 25.41494091 53.28438121 25.42264261 49.28466797 25.42553711 C44.16429575 25.43092206 39.04471199 25.46860746 33.92456245 25.51428127 C29.98339986 25.54405055 26.04242721 25.55126063 22.10116196 25.55226326 C20.21372744 25.55646548 18.32629235 25.56889988 16.43896866 25.58978081 C13.79612784 25.6166941 11.15511577 25.61187066 8.51220703 25.59936523 C7.34774551 25.62161667 7.34774551 25.62161667 6.15975952 25.64431763 C0.46736171 25.5677721 -2.01710566 24.07269307 -6 20 C-7.41353349 17.17293302 -7.23887063 15.14323413 -7 12 C-5.72265625 9.04296875 -5.72265625 9.04296875 -4.0625 6.1875 C-3.51722656 5.23230469 -2.97195312 4.27710938 -2.41015625 3.29296875 C-1 1 -1 1 0 0 Z " fill="#FDD3D5" transform="translate(215,250)"/>
<path d="M0 0 C1.58158962 3.00887781 2.43945339 5.63672037 3 9 C2.01 8.67 1.02 8.34 0 8 C0 8.99 0 9.98 0 11 C-0.804375 11.474375 -1.60875 11.94875 -2.4375 12.4375 C-5.14896929 13.70436481 -5.14896929 13.70436481 -5.625 16 C-5.810625 16.99 -5.810625 16.99 -6 18 C-6.97753644 19.02196992 -7.9805881 20.01979625 -9 21 C-9.433125 21.804375 -9.86625 22.60875 -10.3125 23.4375 C-12.48715407 26.73975248 -14.53619337 28.08647185 -18 30 C-20.75879756 30.36998917 -23.1064023 30.52937346 -25.85375977 30.48583984 C-26.61713654 30.48963654 -27.38051331 30.49343323 -28.16702271 30.49734497 C-30.67557644 30.50471904 -33.18295651 30.48341521 -35.69140625 30.4609375 C-37.44205082 30.45855129 -39.19269799 30.45764813 -40.94334412 30.4581604 C-44.60586666 30.4550379 -48.26799622 30.43851394 -51.93041992 30.41162109 C-56.62013835 30.37761697 -61.30942599 30.3699936 -65.99925327 30.37151146 C-69.61183264 30.37096713 -73.22431824 30.35999025 -76.83686638 30.34550858 C-78.5659915 30.33915444 -80.29512722 30.33520493 -82.02426338 30.33372116 C-84.44157057 30.3293748 -86.85842521 30.31184617 -89.27563477 30.29052734 C-89.98694046 30.29143372 -90.69824615 30.29234009 -91.43110657 30.29327393 C-95.38626345 30.24238191 -98.43456361 29.73539966 -102 28 C-101.505 26.515 -101.505 26.515 -101 25 C-100.31785934 25.48666641 -99.63571869 25.97333282 -98.9329071 26.4747467 C-95.39478302 28.31474205 -93.05039128 28.38644092 -89.07348633 28.40405273 C-88.39631561 28.41091599 -87.7191449 28.41777924 -87.02145386 28.42485046 C-84.79143045 28.44309093 -82.56211301 28.4392829 -80.33203125 28.43359375 C-78.77129388 28.43815914 -77.21055852 28.44346578 -75.64982605 28.44947815 C-72.37901649 28.45840554 -69.10845109 28.45599314 -65.83764648 28.44604492 C-61.66944436 28.43459604 -57.50209459 28.45470494 -53.3340044 28.48396206 C-50.10895017 28.50242004 -46.88409618 28.50201197 -43.6590023 28.49632454 C-42.12378436 28.49617228 -40.58855201 28.50213721 -39.05338478 28.51461601 C-24.8106282 28.64619124 -24.8106282 28.64619124 -12.734375 21.86328125 C-11.87585938 20.44595703 -11.87585938 20.44595703 -11 19 C-10.56365234 18.28118652 -10.12730469 17.56237305 -9.67773438 16.82177734 C-8.16727875 14.29551531 -6.70413646 11.74655117 -5.25 9.1875 C-4.74339844 8.30384766 -4.23679687 7.42019531 -3.71484375 6.50976562 C-2.47276091 4.34197954 -1.23461577 2.17204462 0 0 Z " fill="#DE4B58" transform="translate(167,246)"/>
<path d="M0 0 C1.32 0.33 2.64 0.66 4 1 C4.02705729 2.77074917 4.04642195 4.54161711 4.0625 6.3125 C4.07410156 7.29863281 4.08570313 8.28476562 4.09765625 9.30078125 C4 12 4 12 3 15 C-2.39836986 17.99426865 -6.90325278 18.42977271 -12.99291992 18.37231445 C-13.86533829 18.37596512 -14.73775665 18.37961578 -15.63661194 18.38337708 C-18.5014329 18.39144016 -21.36568082 18.37791114 -24.23046875 18.36328125 C-26.22870381 18.36276227 -28.22693939 18.36328142 -30.22517395 18.36479187 C-34.4036933 18.36470235 -38.5820189 18.35431066 -42.76049805 18.33618164 C-48.11725799 18.31345111 -53.47373617 18.3129605 -58.83053112 18.31969929 C-62.95260627 18.32303901 -67.07461711 18.31640982 -71.19668007 18.30657005 C-73.17225114 18.30272115 -75.14782937 18.30156855 -77.12340355 18.3031559 C-79.88082932 18.30352648 -82.63789237 18.29090977 -85.39526367 18.2746582 C-86.61954575 18.27837433 -86.61954575 18.27837433 -87.86856079 18.28216553 C-91.71019793 18.24600392 -94.74720255 18.18639774 -98 16 C-97.67 14.68 -97.34 13.36 -97 12 C-96.34756821 12.64932495 -95.69513641 13.2986499 -95.02293396 13.96765137 C-91.19345056 16.54225123 -88.08908193 16.56402755 -83.63305664 16.51757812 C-82.8031572 16.5245874 -81.97325775 16.53159668 -81.11820984 16.53881836 C-78.38184899 16.55638648 -75.64652716 16.544779 -72.91015625 16.53125 C-71.00353294 16.53394552 -69.09691097 16.53782844 -67.19029236 16.54284668 C-63.19647113 16.54874034 -59.20300807 16.54018398 -55.20922852 16.52148438 C-50.09677856 16.49871041 -44.9851693 16.5118089 -39.87275028 16.53577423 C-35.93584392 16.55024899 -31.99913586 16.54561825 -28.06222343 16.53526306 C-26.17761574 16.53259961 -24.29298988 16.53585209 -22.4084034 16.54518127 C-19.7705654 16.55537282 -17.1340758 16.53980935 -14.49633789 16.51757812 C-13.72160126 16.52567505 -12.94686462 16.53377197 -12.14865112 16.54211426 C-6.9679531 16.46147466 -3.98331056 15.29281052 0 12 C1.89679663 8.20640675 1.21724428 3.95604392 0 0 Z " fill="#D74B5A" transform="translate(307,258)"/>
<path d="M0 0 C0.99 0.33 1.98 0.66 3 1 C2.66266846 1.589021 2.32533691 2.17804199 1.9777832 2.78491211 C0.42209843 5.50210388 -1.1327052 8.21979889 -2.6875 10.9375 C-3.48317383 12.32678711 -3.48317383 12.32678711 -4.29492188 13.74414062 C-5.35430153 15.5964302 -6.41054912 17.45051469 -7.46362305 19.30639648 C-8.46272982 21.05804832 -9.4740108 22.80283118 -10.49926758 24.53930664 C-10.95325928 25.32039795 -11.40725098 26.10148926 -11.875 26.90625 C-12.27847656 27.58880859 -12.68195313 28.27136719 -13.09765625 28.97460938 C-14.61991045 32.39144402 -14.33461478 35.31923745 -14 39 C-14.66 39 -15.32 39 -16 39 C-18.85793316 36.14206684 -18.40799941 33.85334416 -18.625 29.875 C-18.69976562 28.59367187 -18.77453125 27.31234375 -18.8515625 25.9921875 C-18.90054688 25.00476563 -18.94953125 24.01734375 -19 23 C-17.35 23.33 -15.7 23.66 -14 24 C-13.01 21.69 -12.02 19.38 -11 17 C-10.01 17 -9.02 17 -8 17 C-8 16.01 -8 15.02 -8 14 C-7.34 14 -6.68 14 -6 14 C-6 12.68 -6 11.36 -6 10 C-5.34 10 -4.68 10 -4 10 C-4.33 8.02 -4.66 6.04 -5 4 C-3.35 3.34 -1.7 2.68 0 2 C0 1.34 0 0.68 0 0 Z " fill="#F04152" transform="translate(223,231)"/>
<path d="M0 0 C0 0.99 0 1.98 0 3 C-28.05 2.67 -56.1 2.34 -85 2 C-85 1.67 -85 1.34 -85 1 C-74.36034243 0.86940117 -63.72068247 0.73899876 -53.0810194 0.60884857 C-48.14084442 0.54841144 -43.2006703 0.48790611 -38.26049805 0.42724609 C-33.49485274 0.36873157 -28.72920529 0.31039466 -23.96355629 0.25218201 C-22.14345535 0.22991795 -20.3233552 0.20758939 -18.50325584 0.18519592 C-15.95814591 0.15389325 -13.4130333 0.12281785 -10.86791992 0.09179688 C-10.11194519 0.08244614 -9.35597046 0.0730954 -8.5770874 0.0634613 C-5.71781765 0.02879934 -2.85951357 0 0 0 Z " fill="#ED4053" transform="translate(306,275)"/>
<path d="M0 0 C2 1 2 1 4 4 C4.33 4 4.66 4 5 4 C5.34627149 12.65678717 4.31955507 17.99295245 -1.66015625 24.484375 C-3.09605222 25.97765432 -3.09605222 25.97765432 -4 28 C-4.66 28 -5.32 28 -6 28 C-6 28.99 -6 29.98 -6 31 C-6.66 31 -7.32 31 -8 31 C-6.99968297 28.31468293 -5.92331901 25.86670222 -4.4921875 23.37890625 C0.07150769 15.43102163 0.72428161 9.06693269 0 0 Z " fill="#EB505C" transform="translate(227,126)"/>
<path d="M0 0 C0.66 0.66 1.32 1.32 2 2 C0.7315625 1.87625 0.7315625 1.87625 -0.5625 1.75 C-4.82291144 2.05984811 -7.9276424 3.03922924 -11 6 C-12.72272506 9.22316302 -13.92806143 12.51120616 -15 16 C-15.66 16 -16.32 16 -17 16 C-17.33 17.32 -17.66 18.64 -18 20 C-18.66 20 -19.32 20 -20 20 C-20.12375 20.763125 -20.2475 21.52625 -20.375 22.3125 C-21 25 -21 25 -23 28 C-23.66 28 -24.32 28 -25 28 C-23.02927533 22.84662589 -20.42691358 18.21419326 -17.6875 13.4375 C-17.21376953 12.58736328 -16.74003906 11.73722656 -16.25195312 10.86132812 C-12.13756285 3.68506601 -8.99470673 -1.01826869 0 0 Z " fill="#FDDEDC" transform="translate(262,186)"/>
<path d="M0 0 C2.875 0.6875 2.875 0.6875 6 2 C7.375 4.625 7.375 4.625 8 7 C8.66 5.68 9.32 4.36 10 3 C11.06538268 8.63130846 11.52294688 14.29566266 12 20 C9.07540176 16.31822423 6.71642444 12.34204479 4.3125 8.3125 C3.89677734 7.62349609 3.48105469 6.93449219 3.05273438 6.22460938 C0 1.12669335 0 1.12669335 0 0 Z " fill="#F04051" transform="translate(295,238)"/>
<path d="M0 0 C0.61328125 1.8046875 0.61328125 1.8046875 1 4 C-0.75892037 7.03262133 -2.52190288 9.52190288 -5 12 C-5.672885 13.61492399 -6.34490869 15.23021442 -7.01171875 16.84765625 C-8.9557938 21.08159044 -11.27123771 25.22229845 -14 29 C-14.66 29 -15.32 29 -16 29 C-14.34892841 24.45293118 -12.0735352 20.3766548 -9.6875 16.1875 C-9.28668213 15.47916016 -8.88586426 14.77082031 -8.47290039 14.04101562 C-5.76648562 9.28166621 -2.97087639 4.60006667 0 0 Z " fill="#FDD7DA" transform="translate(83,227)"/>
<path d="M0 0 C0.33 0.66 0.66 1.32 1 2 C0.39671875 2.08636719 -0.2065625 2.17273438 -0.828125 2.26171875 C-1.62734375 2.40222656 -2.4265625 2.54273438 -3.25 2.6875 C-4.03890625 2.81511719 -4.8278125 2.94273437 -5.640625 3.07421875 C-10.78359311 5.09223769 -13.13042519 10.72824409 -15.75 15.3125 C-16.36359375 16.38113281 -16.9771875 17.44976562 -17.609375 18.55078125 C-18.29773438 19.76314453 -18.29773438 19.76314453 -19 21 C-20.1171875 17.28125 -20.1171875 17.28125 -19.0625 14.75 C-18.711875 14.1725 -18.36125 13.595 -18 13 C-17.34 13 -16.68 13 -16 13 C-16.103125 12.0925 -16.20625 11.185 -16.3125 10.25 C-16 7 -16 7 -13.625 4.625 C-11 3 -11 3 -9 3 C-9 2.34 -9 1.68 -9 1 C-5.8035914 -0.06546953 -3.34252724 -0.07427838 0 0 Z " fill="#E74E5B" transform="translate(261,184)"/>
<path d="M0 0 C1.8871875 0.061875 1.8871875 0.061875 3.8125 0.125 C4.1425 0.785 4.4725 1.445 4.8125 2.125 C1.8425 2.125 -1.1275 2.125 -4.1875 2.125 C-4.1875 3.115 -4.1875 4.105 -4.1875 5.125 C-4.6825 5.599375 -5.1775 6.07375 -5.6875 6.5625 C-7.64918789 8.24493064 -7.64918789 8.24493064 -7.1875 12.125 C-9.1675 12.785 -11.1475 13.445 -13.1875 14.125 C-13.1875 15.115 -13.1875 16.105 -13.1875 17.125 C-13.8475 17.125 -14.5075 17.125 -15.1875 17.125 C-13.83197629 13.51243203 -12.22141175 10.25328413 -10.25 6.9375 C-9.74597656 6.07769531 -9.24195313 5.21789062 -8.72265625 4.33203125 C-6.2511541 0.77885385 -4.16609699 -0.13659334 0 0 Z " fill="#FCD4D6" transform="translate(184.1875,60.875)"/>
<path d="M0 0 C1.33470263 2.66940525 0.57333449 4.13332753 0 7 C0.33 7.66 0.66 8.32 1 9 C-3.75 13 -3.75 13 -6 13 C-6.30744141 13.92232422 -6.30744141 13.92232422 -6.62109375 14.86328125 C-7.74739583 18.2421875 -8.87369792 21.62109375 -10 25 C-12.0625 25.6875 -12.0625 25.6875 -14 26 C-12.65788025 22.444218 -11.07755303 19.20894833 -9.1796875 15.91796875 C-8.64472656 14.98662109 -8.10976562 14.05527344 -7.55859375 13.09570312 C-7.00300781 12.13599609 -6.44742188 11.17628906 -5.875 10.1875 C-5.31167969 9.20845703 -4.74835938 8.22941406 -4.16796875 7.22070312 C-2.78155585 4.81210445 -1.39214945 2.40528605 0 0 Z " fill="#E45767" transform="translate(182,220)"/>
<path d="M0 0 C0.99 0.33 1.98 0.66 3 1 C-0.96 7.93 -4.92 14.86 -9 22 C-9.33 20.68 -9.66 19.36 -10 18 C-9.34 18 -8.68 18 -8 18 C-8 16.68 -8 15.36 -8 14 C-7.34 14 -6.68 14 -6 14 C-6 12.68 -6 11.36 -6 10 C-5.34 10 -4.68 10 -4 10 C-4.33 8.02 -4.66 6.04 -5 4 C-3.35 3.34 -1.7 2.68 0 2 C0 1.34 0 0.68 0 0 Z " fill="#E2515F" transform="translate(223,231)"/>
<path d="M0 0 C1.35987964 4.07963893 -0.23260513 6.34008495 -2 10 C-2.45375 11.010625 -2.9075 12.02125 -3.375 13.0625 C-5.28044115 16.50695131 -7.32114365 19.11507777 -10 22 C-10.66 22 -11.32 22 -12 22 C-10.2657267 17.02642312 -7.56672043 12.68501047 -4.875 8.1875 C-4.40707031 7.39923828 -3.93914062 6.61097656 -3.45703125 5.79882812 C-2.30784603 3.86397546 -1.15542997 1.93112772 0 0 Z " fill="#FDE0DF" transform="translate(138,131)"/>
<path d="M0 0 C1.20473246 4.38997207 0.79344791 6.52130162 -1.375 10.5625 C-2.79806976 12.69710464 -4.20391962 14.20391962 -6 16 C-6.7734375 17.3303125 -6.7734375 17.3303125 -7.5625 18.6875 C-8.036875 19.450625 -8.51125 20.21375 -9 21 C-9.66 21 -10.32 21 -11 21 C-9.3003494 16.26525903 -6.86340973 12.03832889 -4.375 7.6875 C-3.95476562 6.94693359 -3.53453125 6.20636719 -3.1015625 5.44335938 C-2.07051505 3.62730989 -1.03563954 1.81343467 0 0 Z " fill="#E45868" transform="translate(194,199)"/>
<path d="M0 0 C1.32 0.33 2.64 0.66 4 1 C4.02705729 2.77074917 4.04642195 4.54161711 4.0625 6.3125 C4.07410156 7.29863281 4.08570313 8.28476562 4.09765625 9.30078125 C4 12 4 12 3 15 C-3.11111111 18 -3.11111111 18 -6 18 C-6 17.34 -6 16.68 -6 16 C-4.01310269 14.64721885 -2.01254782 13.31431695 0 12 C1.89679663 8.20640675 1.21724428 3.95604392 0 0 Z " fill="#EB4D5F" transform="translate(307,258)"/>
<path d="M0 0 C0.33 0 0.66 0 1 0 C2.125 7.75 2.125 7.75 1 10 C-0.32 9.67 -1.64 9.34 -3 9 C-3.66 10.98 -4.32 12.96 -5 15 C-5.66 15 -6.32 15 -7 15 C-7 15.99 -7 16.98 -7 18 C-7.99 18.33 -8.98 18.66 -10 19 C-8.40376856 14.60616294 -6.21975667 10.71004193 -3.875 6.6875 C-3.50246094 6.04232422 -3.12992188 5.39714844 -2.74609375 4.73242188 C-1.83367787 3.15324055 -0.91724491 1.57638136 0 0 Z " fill="#E25865" transform="translate(205,180)"/>
<path d="M0 0 C-1.43652105 4.91441412 -3.54159615 9.00238358 -6.125 13.375 C-6.49753906 14.01566406 -6.87007813 14.65632812 -7.25390625 15.31640625 C-8.16434002 16.88048477 -9.08148191 18.44065534 -10 20 C-10.97208211 16.93268685 -11.12387212 16.27871227 -9.75 13.1875 C-9.1725 12.135625 -8.595 11.08375 -8 10 C-7.505 8.783125 -7.01 7.56625 -6.5 6.3125 C-3.64150943 0 -3.64150943 0 0 0 Z " fill="#DF5162" transform="translate(76,238)"/>
<path d="M0 0 C0.66 0 1.32 0 2 0 C0.53967505 5.31027254 -1.98320986 9.46330032 -5 14 C-5.99 13.67 -6.98 13.34 -8 13 C-8 10.69 -8 8.38 -8 6 C-7.34 6 -6.68 6 -6 6 C-5.525625 5.505 -5.05125 5.01 -4.5625 4.5 C-3 3 -3 3 0 3 C0 2.01 0 1.02 0 0 Z " fill="#F53A4B" transform="translate(131,139)"/>
<path d="M0 0 C0.66 0 1.32 0 2 0 C0.24869503 4.75218971 -2.07702849 9.15573892 -4.4375 13.625 C-4.83259766 14.388125 -5.22769531 15.15125 -5.63476562 15.9375 C-6.02212891 16.67226562 -6.40949219 17.40703125 -6.80859375 18.1640625 C-7.15720459 18.82873535 -7.50581543 19.4934082 -7.86499023 20.17822266 C-9.0489611 22.07858631 -10.36068052 23.48429748 -12 25 C-11.42724319 20.99070234 -10.09160006 18.43022411 -8 15 C-7.67 13.96875 -7.34 12.9375 -7 11.875 C-5.988828 8.9678805 -5.19802824 8.01485922 -3 6 C-1.86649466 3.98330173 -1.86649466 3.98330173 -1 2 C-0.67 1.34 -0.34 0.68 0 0 Z " fill="#E44E5F" transform="translate(101,191)"/>
<path d="M0 0 C0.66 0.33 1.32 0.66 2 1 C0.38055136 3.96140499 -1.24649452 6.91856719 -2.875 9.875 C-3.56529297 11.13763672 -3.56529297 11.13763672 -4.26953125 12.42578125 C-4.71425781 13.23144531 -5.15898437 14.03710938 -5.6171875 14.8671875 C-6.02565918 15.61081543 -6.43413086 16.35444336 -6.85498047 17.12060547 C-8 19 -8 19 -10 21 C-9.3386196 15.84123287 -8.09902827 10.7705188 -6 6 C-5.34 5.67 -4.68 5.34 -4 5 C-3.34 5.33 -2.68 5.66 -2 6 C-1.855625 5.38125 -1.71125 4.7625 -1.5625 4.125 C-1 2 -1 2 0 0 Z " fill="#E34E5D" transform="translate(164,82)"/>
<path d="M0 0 C0.99 0 1.98 0 3 0 C3.33 1.65 3.66 3.3 4 5 C4.66 5 5.32 5 6 5 C6.268125 5.7425 6.53625 6.485 6.8125 7.25 C7.86033789 9.99492605 7.86033789 9.99492605 9.5625 12 C11.23332631 14.32462791 11.60987369 16.19109059 12 19 C11.34 19.33 10.68 19.66 10 20 C9.52949219 19.11957031 9.05898437 18.23914063 8.57421875 17.33203125 C7.95160156 16.17058594 7.32898438 15.00914063 6.6875 13.8125 C6.07261719 12.66394531 5.45773438 11.51539062 4.82421875 10.33203125 C3.68953381 8.25946968 2.51148621 6.20933547 1.26953125 4.19921875 C0 2 0 2 0 0 Z " fill="#E94F5F" transform="translate(195,69)"/>
<path d="M0 0 C0.99 0.33 1.98 0.66 3 1 C3 1.99 3 2.98 3 4 C3.62648438 4.07476562 4.25296875 4.14953125 4.8984375 4.2265625 C7 5 7 5 7.9765625 6.9609375 C8.19054687 7.75757813 8.40453125 8.55421875 8.625 9.375 C9.48536201 12.48242515 10.16748687 14.25123031 12 17 C11.625 19.1875 11.625 19.1875 11 21 C9.15966024 17.87907566 7.32893744 14.75261783 5.5 11.625 C4.97535156 10.73554688 4.45070313 9.84609375 3.91015625 8.9296875 C3.41386719 8.07890625 2.91757812 7.228125 2.40625 6.3515625 C1.94541016 5.56604004 1.48457031 4.78051758 1.00976562 3.97119141 C0 2 0 2 0 0 Z " fill="#E05663" transform="translate(271,196)"/>
<path d="M0 0 C0.66 0.33 1.32 0.66 2 1 C0.56524299 3.41833257 -0.87268453 5.83468164 -2.3125 8.25 C-2.71662109 8.93191406 -3.12074219 9.61382812 -3.53710938 10.31640625 C-5.54428395 13.6780157 -7.55555143 16.93059533 -10 20 C-9.67 17.36 -9.34 14.72 -9 12 C-8.34 12 -7.68 12 -7 12 C-7 10.68 -7 9.36 -7 8 C-6.34 7.34 -5.68 6.68 -5 6 C-4.67 5.34 -4.34 4.68 -4 4 C-2.68671343 2.64691687 -1.35500919 1.31129922 0 0 Z " fill="#E84B5D" transform="translate(176,62)"/>
<path d="M0 0 C0.66 0 1.32 0 2 0 C0.3003494 4.73474097 -2.13659027 8.96167111 -4.625 13.3125 C-5.04523438 14.05306641 -5.46546875 14.79363281 -5.8984375 15.55664062 C-6.92948495 17.37269011 -7.96436046 19.18656533 -9 21 C-9.33 21 -9.66 21 -10 21 C-10 19.35 -10 17.7 -10 16 C-9.34 16 -8.68 16 -8 16 C-7.7525 14.948125 -7.505 13.89625 -7.25 12.8125 C-6.21934456 9.16103501 -4.48975899 6.87878384 -2 4 C-1.29114106 2.68861096 -0.60543548 1.36222983 0 0 Z " fill="#E45160" transform="translate(123,153)"/>
<path d="M0 0 C0.33 0 0.66 0 1 0 C1 2.31 1 4.62 1 7 C0.071875 7.3403125 0.071875 7.3403125 -0.875 7.6875 C-3.68389189 9.42240381 -3.94536381 10.90640051 -5 14 C-5.98482022 16.00751815 -6.98152514 18.00934459 -8 20 C-8.66 20 -9.32 20 -10 20 C-8.56347895 15.08558588 -6.45840385 10.99761642 -3.875 6.625 C-3.50246094 5.98433594 -3.12992188 5.34367187 -2.74609375 4.68359375 C-1.83565998 3.11951523 -0.91851809 1.55934466 0 0 Z " fill="#FDDCDE" transform="translate(149,111)"/>
<path d="M0 0 C4 2 4 2 5 4 C6.32 4.33 7.64 4.66 9 5 C9 8.3 9 11.6 9 15 C9.66 15.33 10.32 15.66 11 16 C10.01 16 9.02 16 8 16 C5.36 10.72 2.72 5.44 0 0 Z " fill="#E64E60" transform="translate(206,89)"/>
<path d="M0 0 C0.66 0.33 1.32 0.66 2 1 C-2.95 9.91 -2.95 9.91 -8 19 C-9.23593891 15.29218328 -8.5678132 14.32489747 -7.0625 10.8125 C-6.68222656 9.91144531 -6.30195313 9.01039062 -5.91015625 8.08203125 C-5.60980469 7.39496094 -5.30945313 6.70789063 -5 6 C-4.34 6 -3.68 6 -3 6 C-3 4.68 -3 3.36 -3 2 C-2.01 1.34 -1.02 0.68 0 0 Z " fill="#E45060" transform="translate(152,103)"/>
<path d="M0 0 C0.66 0.33 1.32 0.66 2 1 C-0.97 6.28 -3.94 11.56 -7 17 C-7.66 16.67 -8.32 16.34 -9 16 C-9 15.34 -9 14.68 -9 14 C-8.34 14 -7.68 14 -7 14 C-7 12.68 -7 11.36 -7 10 C-6.34 10 -5.68 10 -5 10 C-4.9175 9.0925 -4.835 8.185 -4.75 7.25 C-3.90751268 3.59922161 -2.82118382 2.36615417 0 0 Z " fill="#E84C5D" transform="translate(234,214)"/>
<path d="M0 0 C0.66 0 1.32 0 2 0 C2 0.66 2 1.32 2 2 C2.66 2 3.32 2 4 2 C4 3.32 4 4.64 4 6 C4.66 6 5.32 6 6 6 C7.03307771 7.76371818 8.05112049 9.53625033 9.0625 11.3125 C9.63097656 12.29863281 10.19945312 13.28476563 10.78515625 14.30078125 C12 17 12 17 11 20 C9.34951167 17.23191444 7.70542682 14.46007909 6.0625 11.6875 C5.35963867 10.50897461 5.35963867 10.50897461 4.64257812 9.30664062 C3.9706543 8.1706543 3.9706543 8.1706543 3.28515625 7.01171875 C2.87144775 6.31522217 2.45773926 5.61872559 2.03149414 4.90112305 C1 3 1 3 0 0 Z " fill="#DF4E5C" transform="translate(283,217)"/>
<path d="M0 0 C7 8.44827586 7 8.44827586 7 12 C5.68 12 4.36 12 3 12 C2.67 12.99 2.34 13.98 2 15 C0.73694665 9.92523206 -0.27036084 5.27203646 0 0 Z " fill="#FBE5E5" transform="translate(274,203)"/>
<path d="M0 0 C3.33511388 2.9901021 5.21521119 5.89498574 7 10 C7 10.66 7 11.32 7 12 C4.03 11.505 4.03 11.505 1 11 C1 10.34 1 9.68 1 9 C0.34 9 -0.32 9 -1 9 C-0.67 6.03 -0.34 3.06 0 0 Z " fill="#FAEFEE" transform="translate(197,75)"/>
<path d="M0 0 C0.66 0 1.32 0 2 0 C0.51481201 4.04301175 -1.42877998 7.61146256 -3.625 11.3125 C-4.25664062 12.38113281 -4.88828125 13.44976562 -5.5390625 14.55078125 C-6.26222656 15.76314453 -6.26222656 15.76314453 -7 17 C-8.25541557 13.23375329 -7.37061958 11.62811066 -6 8 C-5.34 8 -4.68 8 -4 8 C-4 6.68 -4 5.36 -4 4 C-3.01 4 -2.02 4 -1 4 C-0.67 2.68 -0.34 1.36 0 0 Z " fill="#E25263" transform="translate(141,122)"/>
<path d="M0 0 C0.66 0 1.32 0 2 0 C0.57250019 3.79049707 -1.16236542 7.27122456 -3.125 10.8125 C-3.93324219 12.27623047 -3.93324219 12.27623047 -4.7578125 13.76953125 C-5.37269531 14.87361328 -5.37269531 14.87361328 -6 16 C-6.33 16 -6.66 16 -7 16 C-7.39323398 11.03360049 -6.563177 8.6185222 -3.625 4.625 C-2.99851563 3.75101563 -2.37203125 2.87703125 -1.7265625 1.9765625 C-1.15679687 1.32429687 -0.58703125 0.67203125 0 0 Z " fill="#FEE1E3" transform="translate(204,178)"/>
<path d="M0 0 C0.33 1.32 0.66 2.64 1 4 C0.34 4 -0.32 4 -1 4 C-1.12375 5.258125 -1.2475 6.51625 -1.375 7.8125 C-1.69868059 11.10325263 -2.06604999 12.09907498 -4 15 C-4.99 14.67 -5.98 14.34 -7 14 C-5.23570801 9.02790438 -2.6060834 4.56561939 0 0 Z " fill="#E85063" transform="translate(218,157)"/>
<path d="M0 0 C0.33 0 0.66 0 1 0 C1.33 1.98 1.66 3.96 2 6 C-1.75 9 -1.75 9 -4 9 C-4.33 10.65 -4.66 12.3 -5 14 C-5.66 14 -6.32 14 -7 14 C-5.56032356 8.76481294 -3.18303389 4.36973991 0 0 Z " fill="#FDE1DF" transform="translate(223,236)"/>
<path d="M0 0 C0.33 0 0.66 0 1 0 C0.64763231 5.46169916 0.64763231 5.46169916 0 8 C-2 9.25 -2 9.25 -4 10 C-4.80528889 12.05000871 -4.80528889 12.05000871 -5 14 C-5.66 14 -6.32 14 -7 14 C-5.23570801 9.02790438 -2.6060834 4.56561939 0 0 Z " fill="#FCDCDD" transform="translate(231,222)"/>
<path d="M0 0 C1 2 1 2 0.3125 4.8125 C-1.04720281 8.1146354 -2.72113246 10.28006132 -5 13 C-5.33 13.99 -5.66 14.98 -6 16 C-6.66 16 -7.32 16 -8 16 C-6.42986223 10.03347646 -3.24970218 5.17090975 0 0 Z " fill="#FCD4D4" transform="translate(104,190)"/>
<path d="M0 0 C0.66 0.33 1.32 0.66 2 1 C-0.21689838 5.43379675 -2.77728219 7.46636932 -7 10 C-7.99 9.34 -8.98 8.68 -10 8 C-8.824375 7.87625 -8.824375 7.87625 -7.625 7.75 C-4.88368661 7.29004732 -4.88368661 7.29004732 -3.875 5.125 C-3.58625 4.42375 -3.2975 3.7225 -3 3 C-1.375 1.25 -1.375 1.25 0 0 Z " fill="#EC4355" transform="translate(156,266)"/>
<path d="M0 0 C1.98 0.66 3.96 1.32 6 2 C6.12375 2.86625 6.2475 3.7325 6.375 4.625 C6.98058121 7.89513853 7.88306035 10.87256899 9 14 C6.14015453 11.48367951 4.58531178 8.66114447 2.8125 5.3125 C2.28269531 4.31863281 1.75289063 3.32476562 1.20703125 2.30078125 C0.60955078 1.16189453 0.60955078 1.16189453 0 0 Z " fill="#E24E5F" transform="translate(295,238)"/>
<path d="M0 0 C3.22269618 3.79817765 5.74520378 7.57391854 8 12 C7.67 12.66 7.34 13.32 7 14 C3.66144681 11.00681438 1.72601391 8.14243338 0 4 C0 2.68 0 1.36 0 0 Z " fill="#FDE2DD" transform="translate(216,108)"/>
<path d="M0 0 C0.99 0.33 1.98 0.66 3 1 C1.75 3.9375 1.75 3.9375 0 7 C-2.1875 7.875 -2.1875 7.875 -4 8 C-4.33 6.68 -4.66 5.36 -5 4 C-3.35 3.34 -1.7 2.68 0 2 C0 1.34 0 0.68 0 0 Z " fill="#EC4556" transform="translate(223,231)"/>
<path d="M0 0 C0.66 1.32 1.32 2.64 2 4 C1.566875 4.37125 1.13375 4.7425 0.6875 5.125 C-1.46152985 7.51281095 -2.64757984 10.1019568 -4 13 C-4.66 13 -5.32 13 -6 13 C-4.58707905 8.1725201 -2.57025846 4.2837641 0 0 Z " fill="#FCDFDC" transform="translate(125,153)"/>
<path d="M0 0 C1.07851346 4.31405382 0.8992658 5.20146839 -1 9 C-1.66 9.66 -2.32 10.32 -3 11 C-3.99 10.67 -4.98 10.34 -6 10 C-4.02 6.7 -2.04 3.4 0 0 Z " fill="#E75562" transform="translate(162,255)"/>
<path d="M0 0 C0.98908078 3.07714019 1.10785845 4.95338928 0 8 C-0.9601817 9.68991979 -1.95355934 11.36209288 -3 13 C-3.66 12.67 -4.32 12.34 -5 12 C-4.54738642 10.56068883 -4.08767021 9.12361001 -3.625 7.6875 C-3.24214844 6.48673828 -3.24214844 6.48673828 -2.8515625 5.26171875 C-2 3 -2 3 0 0 Z " fill="#ED4C5E" transform="translate(194,199)"/>
<path d="M0 0 C0.66 0.99 1.32 1.98 2 3 C0.07119658 6.40755272 -1.8276509 9.74147635 -4 13 C-4.66 13 -5.32 13 -6 13 C-4.58707905 8.1725201 -2.57025846 4.2837641 0 0 Z " fill="#FDDFDB" transform="translate(157,97)"/>
<path d="M0 0 C0.66 0 1.32 0 2 0 C6 6.625 6 6.625 6 10 C6.66 10 7.32 10 8 10 C7.67 11.32 7.34 12.64 7 14 C5.82807953 12.04480616 4.6626071 10.0857461 3.5 8.125 C2.8503125 7.03445312 2.200625 5.94390625 1.53125 4.8203125 C0 2 0 2 0 0 Z " fill="#E65561" transform="translate(219,111)"/>
<path d="M0 0 C1.13732426 3.40401948 0.83989957 5.77456664 0.0625 9.25 C-0.13214844 10.14203125 -0.32679687 11.0340625 -0.52734375 11.953125 C-0.68332031 12.62859375 -0.83929688 13.3040625 -1 14 C-3 12 -3 12 -3.3125 8.6875 C-2.98867205 4.86633018 -2.22414284 3.05819641 0 0 Z " fill="#FDC7CA" transform="translate(66,256)"/>
<path d="M0 0 C1.33470263 2.66940525 0.57333449 4.13332753 0 7 C0.33 7.66 0.66 8.32 1 9 C-0.98 9.99 -0.98 9.99 -3 11 C-3.32613618 6.32538149 -2.70582788 3.83325617 0 0 Z M-5 11 C-4.01 11.495 -4.01 11.495 -3 12 C-3.99 12.495 -3.99 12.495 -5 13 C-5 12.34 -5 11.68 -5 11 Z " fill="#ED4D5D" transform="translate(182,220)"/>
<path d="M0 0 C0.33 0 0.66 0 1 0 C2.125 7.75 2.125 7.75 1 10 C0.01 9.67 -0.98 9.34 -2 9 C-2.25 3.375 -2.25 3.375 0 0 Z " fill="#EF4957" transform="translate(205,180)"/>
<path d="M0 0 C1.41573582 4.24720747 -0.23670387 6.4310024 -2.125 10.3125 C-2.41375 10.869375 -2.7025 11.42625 -3 12 C-3.99 12 -4.98 12 -6 12 C-4.68139111 7.38486888 -2.78644563 3.90102388 0 0 Z " fill="#FCD6D7" transform="translate(111,178)"/>
<path d="M0 0 C0.93423645 3.01031744 1.04449911 3.86650268 0 7 C-0.66 7 -1.32 7 -2 7 C-2.33 8.32 -2.66 9.64 -3 11 C-3.66 11 -4.32 11 -5 11 C-3.55049545 7.2089881 -1.84827434 3.6125362 0 0 Z " fill="#FCD9DE" transform="translate(89,216)"/>
<path d="M0 0 C-1.47692308 5.66153846 -1.47692308 5.66153846 -4.125 7.375 C-5.053125 7.684375 -5.053125 7.684375 -6 8 C-5.62403791 5.21788056 -5.32681541 3.4120716 -3.5625 1.1875 C-2 0 -2 0 0 0 Z " fill="#EA4555" transform="translate(76,238)"/>
<path d="M0 0 C0.99 0.33 1.98 0.66 3 1 C2.34 1 1.68 1 1 1 C0.896875 2.0725 0.79375 3.145 0.6875 4.25 C0.02599507 7.85820872 -0.57483421 9.36395023 -3 12 C-3.43200679 7.24792529 -1.98489083 4.21789302 0 0 Z " fill="#EA4659" transform="translate(212,248)"/>
<path d="M0 0 C0.33 0 0.66 0 1 0 C1 1.65 1 3.3 1 5 C0.01 5.33 -0.98 5.66 -2 6 C-2.73323796 8.01508358 -2.73323796 8.01508358 -3 10 C-3.66 10 -4.32 10 -5 10 C-3.66654496 6.40992874 -2.1056769 3.20429093 0 0 Z " fill="#FDDCE0" transform="translate(95,206)"/>
<path d="M0 0 C0.66 0.33 1.32 0.66 2 1 C0.90931332 4.77545388 0.0916909 7.47043472 -3 10 C-3 8.02 -3 6.04 -3 4 C-2.01 3.67 -1.02 3.34 0 3 C0 2.01 0 1.02 0 0 Z " fill="#E95463" transform="translate(239,204)"/>
<path d="M0 0 C0.99 0.33 1.98 0.66 3 1 C3 1.99 3 2.98 3 4 C4.32 4.33 5.64 4.66 7 5 C7 5.99 7 6.98 7 8 C5.1875 7.8125 5.1875 7.8125 3 7 C0 2.82142857 0 2.82142857 0 0 Z " fill="#E5495A" transform="translate(271,196)"/>
<path d="M0 0 C0.66 0 1.32 0 2 0 C0.79157144 4.43090471 -0.51668565 6.98112756 -4 10 C-4 8.35 -4 6.7 -4 5 C-3.34 5 -2.68 5 -2 5 C-2 4.34 -2 3.68 -2 3 C-1.34 3 -0.68 3 0 3 C0 2.01 0 1.02 0 0 Z " fill="#DF5660" transform="translate(131,139)"/>
<path d="M0 0 C0.33 0 0.66 0 1 0 C0.67 2.31 0.34 4.62 0 7 C-0.99 7 -1.98 7 -3 7 C-3 7.99 -3 8.98 -3 10 C-3.66 10 -4.32 10 -5 10 C-3.66654496 6.40992874 -2.1056769 3.20429093 0 0 Z " fill="#FBD2D4" transform="translate(163,87)"/>
<path d="M0 0 C4.42857143 5.14285714 4.42857143 5.14285714 5 9 C3.68 8.67 2.36 8.34 1 8 C0.67 5.36 0.34 2.72 0 0 Z " fill="#FDD2DB" transform="translate(301,249)"/>
<path d="M0 0 C1.9375 0.75 1.9375 0.75 4 2 C4.75 4.125 4.75 4.125 5 6 C3.68 6 2.36 6 1 6 C0.67 4.02 0.34 2.04 0 0 Z " fill="#FBD6D6" transform="translate(189,63)"/>
<path d="M0 0 C0.33 0.99 0.66 1.98 1 3 C0.67 3.66 0.34 4.32 0 5 C-0.66 5 -1.32 5 -2 5 C-2.33 6.65 -2.66 8.3 -3 10 C-3.66 10 -4.32 10 -5 10 C-3.84414715 6.08788267 -2.64465038 3.1254959 0 0 Z " fill="#FDD0D5" transform="translate(215,250)"/>
<path d="M0 0 C0.66 0 1.32 0 2 0 C0.66511872 3.59391114 -0.96022723 6.75490696 -3 10 C-3.66 9.34 -4.32 8.68 -5 8 C-4.34 8 -3.68 8 -3 8 C-2.87625 7.236875 -2.7525 6.47375 -2.625 5.6875 C-2 3 -2 3 0 0 Z " fill="#FCE1DF" transform="translate(165,246)"/>
<path d="M0 0 C4.42857143 5.14285714 4.42857143 5.14285714 5 9 C2 8 2 8 0.25 5.0625 C-0.1625 4.051875 -0.575 3.04125 -1 2 C-0.67 1.34 -0.34 0.68 0 0 Z " fill="#FCDDDE" transform="translate(285,222)"/>
<path d="M0 0 C0.99 0.33 1.98 0.66 3 1 C3 1.66 3 2.32 3 3 C1.02 3.66 -0.96 4.32 -3 5 C-3 5.99 -3 6.98 -3 8 C-3.66 8 -4.32 8 -5 8 C-4.1875 5.5625 -4.1875 5.5625 -3 3 C-2.01 2.67 -1.02 2.34 0 2 C0 1.34 0 0.68 0 0 Z " fill="#FCE3E4" transform="translate(174,70)"/>
<path d="M0 0 C0.99 0 1.98 0 3 0 C4.5625 2.8125 4.5625 2.8125 6 6 C5.67 6.99 5.34 7.98 5 9 C3.35 6.03 1.7 3.06 0 0 Z " fill="#E15665" transform="translate(289,228)"/>
<path d="M0 0 C0.33 0 0.66 0 1 0 C0.75 3.375 0.75 3.375 0 7 C-2.0625 8.4375 -2.0625 8.4375 -4 9 C-2.80100302 5.9168649 -1.52299523 2.93720508 0 0 Z " fill="#FCDADC" transform="translate(168,78)"/>
<path d="M0 0 C1.66666667 0 3.33333333 0 5 0 C4.67 1.32 4.34 2.64 4 4 C3.01 4 2.02 4 1 4 C0.67 4.66 0.34 5.32 0 6 C0 4.02 0 2.04 0 0 Z " fill="#F33E50" transform="translate(84,214)"/>
<path d="M0 0 C0.66 0 1.32 0 2 0 C0.90931332 3.77545388 0.0916909 6.47043472 -3 9 C-2.67 6.69 -2.34 4.38 -2 2 C-1.34 2 -0.68 2 0 2 C0 1.34 0 0.68 0 0 Z " fill="#FEE4E6" transform="translate(191,200)"/>
<path d="M0 0 C0.66 0 1.32 0 2 0 C5 4.38461538 5 4.38461538 5 7 C2.525 6.01 2.525 6.01 0 5 C0 3.35 0 1.7 0 0 Z " fill="#FCDFDC" transform="translate(264,188)"/>
<path d="M0 0 C1.125 3.75 1.125 3.75 0 6 C-0.66 6 -1.32 6 -2 6 C-2 6.99 -2 7.98 -2 9 C-2.66 9 -3.32 9 -4 9 C-2.94124926 5.59687262 -1.99097846 2.98646769 0 0 Z " fill="#E35A68" transform="translate(167,246)"/>
<path d="M0 0 C0.66 0 1.32 0 2 0 C0.90931332 3.77545388 0.0916909 6.47043472 -3 9 C-3.33 8.01 -3.66 7.02 -4 6 C-3.01 5.67 -2.02 5.34 -1 5 C-0.67 3.35 -0.34 1.7 0 0 Z " fill="#FEDCDE" transform="translate(170,237)"/>
<path d="M0 0 C2.475 0.495 2.475 0.495 5 1 C4.34 2.65 3.68 4.3 3 6 C0 2.25 0 2.25 0 0 Z " fill="#FCE9E9" transform="translate(179,215)"/>
<path d="M0 0 C2 1.8125 2 1.8125 4 4 C4 4.99 4 5.98 4 7 C3.01 7 2.02 7 1 7 C0.67 4.69 0.34 2.38 0 0 Z " fill="#FED6DA" transform="translate(197,75)"/>
</svg>
